/* XPM */
static char * aircraft_xpm[] = {
"16 16 5 1",
" 	c None",
".	c #0000FF",
"+	c #0000AA",
"@	c #000080",
"#	c #4000BF",
"       ..       ",
"       ..       ",
"       ..       ",
"       ..       ",
"       ++       ",
"     ..@@..     ",
"   ....@@....   ",
" ......@@...... ",
".#.....@@.....#.",
"................",
"       ..       ",
"       ..       ",
"       ..       ",
"       @@       ",
"      .@@.      ",
"     ..++..     "};
