/* XPM */
static char * electric_engine_xpm[] = {
"16 16 157 2",
"  	c #FFFFFF",
". 	c #F6F6F6",
"+ 	c #F2F2F2",
"@ 	c #F9F9F9",
"# 	c #FDFDFD",
"$ 	c #CDCDCD",
"% 	c #B6B5B3",
"& 	c #B9B39F",
"* 	c #EEECE3",
"= 	c #E5DFC7",
"- 	c #B8B39C",
"; 	c #CAC5AF",
"> 	c #A7A7A6",
", 	c #F4F4F4",
"' 	c #B8B8B5",
") 	c #CAC3A9",
"! 	c #B5AD91",
"~ 	c #AB9D6E",
"{ 	c #D9CFA9",
"] 	c #C3B689",
"^ 	c #796F4C",
"/ 	c #867E5A",
"( 	c #7D755D",
"_ 	c #C5C0B1",
": 	c #CACACA",
"< 	c #59564E",
"[ 	c #F1E4B4",
"} 	c #F1E5B9",
"| 	c #DACB95",
"1 	c #D0C18A",
"2 	c #B6A979",
"3 	c #837853",
"4 	c #796E4B",
"5 	c #9A8D60",
"6 	c #8D815C",
"7 	c #7C7C7C",
"8 	c #383426",
"9 	c #F6ECCA",
"0 	c #F8F4E7",
"a 	c #EFE5C6",
"b 	c #EBDFB6",
"c 	c #E1D4A7",
"d 	c #C7B887",
"e 	c #A89970",
"f 	c #A39A79",
"g 	c #76683D",
"h 	c #595959",
"i 	c #363224",
"j 	c #EDDEAA",
"k 	c #FCFAF3",
"l 	c #FAF6E4",
"m 	c #E5D490",
"n 	c #D5BF75",
"o 	c #B8A561",
"p 	c #97844F",
"q 	c #78683D",
"r 	c #685D34",
"s 	c #2B2B28",
"t 	c #CDC6AA",
"u 	c #FCF9EC",
"v 	c #FAF6E1",
"w 	c #E2CE88",
"x 	c #CCB66C",
"y 	c #B19F5C",
"z 	c #938148",
"A 	c #74683D",
"B 	c #444033",
"C 	c #2B2B2B",
"D 	c #ADACA6",
"E 	c #E1E0DD",
"F 	c #DCDCD7",
"G 	c #B5B0A1",
"H 	c #9D9889",
"I 	c #898576",
"J 	c #716D61",
"K 	c #5B594F",
"L 	c #3D3C3A",
"M 	c #555555",
"N 	c #FAFAFA",
"O 	c #2A2A2A",
"P 	c #A4A4A4",
"Q 	c #D2D2D2",
"R 	c #D1D1D1",
"S 	c #ACACAC",
"T 	c #939393",
"U 	c #7B7B7B",
"V 	c #7A7A7A",
"W 	c #5F5F5F",
"X 	c #474747",
"Y 	c #484848",
"Z 	c #D8D8D8",
"` 	c #E8E8E8",
" .	c #292929",
"..	c #A5A5A5",
"+.	c #CBCBCB",
"@.	c #AAAAAA",
"#.	c #929292",
"$.	c #797979",
"%.	c #626262",
"&.	c #515151",
"*.	c #3A3A3A",
"=.	c #B6B6B6",
"-.	c #CCCCCC",
";.	c #262626",
">.	c #A6A6A6",
",.	c #C5C5C5",
"'.	c #A7A7A7",
").	c #919191",
"!.	c #7D7D7D",
"~.	c #787878",
"{.	c #606060",
"].	c #323232",
"^.	c #9F9F9F",
"/.	c #B7B7B7",
"(.	c #DDDDDD",
"_.	c #212121",
":.	c #C0C0C0",
"<.	c #7E7E7E",
"[.	c #5E5E5E",
"}.	c #656565",
"|.	c #313131",
"1.	c #9A9A9A",
"2.	c #B8B8B8",
"3.	c #DFDFDF",
"4.	c #363636",
"5.	c #959595",
"6.	c #BDBDBD",
"7.	c #BEBEBE",
"8.	c #A8A8A8",
"9.	c #949494",
"0.	c #676767",
"a.	c #545454",
"b.	c #6E6E6E",
"c.	c #434343",
"d.	c #EEEEEE",
"e.	c #151515",
"f.	c #8F8F8F",
"g.	c #777777",
"h.	c #3C3C3C",
"i.	c #070707",
"j.	c #D0D0D0",
"k.	c #EDEDED",
"l.	c #FBFBFB",
"m.	c #D6D6D6",
"n.	c #878787",
"o.	c #6F6F6F",
"p.	c #6B6B6B",
"q.	c #A2A2A2",
"r.	c #B3B3B3",
"s.	c #DEDEDE",
"t.	c #F1F1F1",
"u.	c #FEFEFE",
"v.	c #D4D4D4",
"w.	c #C6C6C6",
"x.	c #E3E3E3",
"y.	c #F0F0F0",
"z.	c #F7F7F7",
"            . + @               ",
"    # $ % & * = - ; > ,         ",
"    ' ) ! ~ { ] ^ / ( _ :       ",
"    < [ } | 1 2 3 4 5 6 7       ",
"    8 9 0 a b c d e f g h       ",
"    i j k l m n o p q r h       ",
"    s t u v w x y z A B h       ",
"    C D E F G H I J K L M . N # ",
"    O P Q R S T U V W X Y Z ` . ",
"     ...$ +.@.#.7 $.%.&.*.=.-.` ",
"    ;.>.: ,.'.).!.~.{.h ].^./.(.",
"    _.>.,.:.'.#.7 <.[.}.|.1.2.3.",
"    4.5.6.7.8.9.<.0.a.b.c.'.$ d.",
"    ` e.5.7.8.^.f.g.h.i...j.k.@ ",
"    l.m.+.n.g.o.p.b.q.r.s.t.N u.",
"    u.u.t.v.+.w.,.: x.y.z.l.u.  "};
