/* XPM */
static char *engine_icon_xpm[]={
"16 16 7 1",
". c None",
"e c #000040",
"# c #0000ff",
"d c #00ffff",
"c c #800000",
"a c #c00000",
"b c #ff0000",
"................",
"................",
"................",
"....#######.....",
"...#.......#....",
"..#.........#...",
"....a#####.b....",
"..c.a.dd...b...b",
"..ceaeeeeeeb.b..",
"..c.a.dd...b...b",
"....a#####.b....",
"..#.........#...",
"...#.......#....",
"....#######.....",
"................",
"................"};
