/* XPM */
static char * filter_xpm[] = {
"32 32 44 1",
" 	c #000000",
".	c #FFFFFF",
"+	c #E4E4E4",
"@	c #181818",
"#	c #C1C1C1",
"$	c #282828",
"%	c #515151",
"&	c #CECECE",
"*	c #C6C6C6",
"=	c #3B3B3B",
"-	c #303030",
";	c #2C2C2C",
">	c #595959",
",	c #ECECEC",
"'	c #1D1D1D",
")	c #D4D4D4",
"!	c #7F7F7F",
"~	c #666666",
"{	c #1E1E1E",
"]	c #828282",
"^	c #EEEEEE",
"/	c #CFCFCF",
"(	c #393939",
"_	c #030303",
":	c #343434",
"<	c #888888",
"[	c #F7F7F7",
"}	c #E5E5E5",
"|	c #A0A0A0",
"1	c #323232",
"2	c #525252",
"3	c #2F2F2F",
"4	c #D9D9D9",
"5	c #717171",
"6	c #090909",
"7	c #F4F4F4",
"8	c #1A1A1A",
"9	c #B7B7B7",
"0	c #ABABAB",
"a	c #3D3D3D",
"b	c #424242",
"c	c #2A2A2A",
"d	c #4E4E4E",
"e	c #E3E3E3",
"                                ",
"                                ",
"  ............................  ",
"  ............................  ",
"  ............................  ",
"  ............................  ",
"  ..............+@............  ",
"  .............#$ ............  ",
"  .............%& ............  ",
"  ............... ............  ",
"  ............... ............  ",
"  ............... ............  ",
"  ............... ............  ",
"   .............. ......... ..  ",
"  . ........................ .  ",
"  .. ..                  ....   ",
"  . ........................ .  ",
"   ....*=-;>,..........+@.. ..  ",
"  .....')..!~.........#$ .....  ",
"  .....{]^....... ....%& .....  ",
"  ...../(_:<[.... ...... .....  ",
"  .......}|12..33 33.... .....  ",
"  ....45...,6.... ...... .....  ",
"  ....789..0a.... ...... .....  ",
"  ...../bc;de........... .....  ",
"  ............................  ",
"  ............................  ",
"  ............................  ",
"  ............................  ",
"  ............................  ",
"                                ",
"                                "};
