/* XPM */
static char *gear_icon_xpm[]={
"16 16 4 1",
". c None",
"a c #000080",
"# c #0000ff",
"b c #ff0000",
"................",
"........#.......",
"........#.......",
"........#.......",
"........#.......",
".......aaa......",
"......aaaaa.....",
"######aaaaa#####",
"..b...aaaaa...b.",
"..b....aaa....b.",
"..b.....b.....b.",
"..b.....b.....b.",
"..b.....b.....b.",
"..b.....b.....b.",
"..bb...bbb...bb.",
"................"};
