/* XPM */
static char *metrics_icon_xpm[]={
"16 16 5 1",
". c None",
"# c #000080",
"b c #0000ff",
"a c #00ffff",
"c c #ff0000",
".......##.......",
".......aa.......",
".......aa.......",
"......b##b......",
"......b##b......",
".....bb##bb.....",
".....bb##bb.....",
"....bbb##bbb....",
"...bbbb##bbbb...",
"...bbbb##bbbb...",
".cbbbbb##bbbbbc.",
".cbbbbb##bbbbbc.",
".......##.......",
"......b##b......",
".....bb##bb.....",
"....bbb##bbb...."};
