/* XPM */
static char * myclose_xpm[] = {
"16 16 117 2",
"  	c #F8F5F2",
". 	c #F7F4F1",
"+ 	c #CAC7C5",
"@ 	c #3E3D3D",
"# 	c #6D6B6A",
"$ 	c #BAB8B6",
"% 	c #140E01",
"& 	c #563B0A",
"* 	c #5E4412",
"= 	c #654C1A",
"- 	c #6A511F",
"; 	c #6D5422",
"> 	c #000000",
", 	c #D9D6D4",
"' 	c #4E4D4C",
") 	c #1D1404",
"! 	c #7E5B19",
"~ 	c #8B6927",
"{ 	c #967533",
"] 	c #9E7E3B",
"^ 	c #A38340",
"/ 	c #201F1F",
"( 	c #BEBEBE",
"_ 	c #6F6F6F",
": 	c #0F0B03",
"< 	c #826224",
"[ 	c #9A7936",
"} 	c #A78744",
"| 	c #B1924E",
"1 	c #B69854",
"2 	c #5D5C5B",
"3 	c #9F9F9F",
"4 	c #FFFFFF",
"5 	c #1C1609",
"6 	c #9C7E3F",
"7 	c #B69753",
"8 	c #BFA15D",
"9 	c #BB9B59",
"0 	c #AB8647",
"a 	c #BA9A57",
"b 	c #CECECE",
"c 	c #AFAFAF",
"d 	c #1B1915",
"e 	c #9B824B",
"f 	c #C1A35F",
"g 	c #B08F6F",
"h 	c #F6E4C9",
"i 	c #A46B26",
"j 	c #B99957",
"k 	c #000001",
"l 	c #2F2F2E",
"m 	c #CFCFCF",
"n 	c #1C1A15",
"o 	c #B08D4D",
"p 	c #D1B087",
"q 	c #EECD9A",
"r 	c #B16F14",
"s 	c #040406",
"t 	c #06060A",
"u 	c #9B9997",
"v 	c #302F2F",
"w 	c #241E11",
"x 	c #9B6928",
"y 	c #A3620B",
"z 	c #895717",
"A 	c #C0A25E",
"B 	c #09090F",
"C 	c #0D0E17",
"D 	c #ABA8A6",
"E 	c #2F2F2F",
"F 	c #EFEFEF",
"G 	c #211B0E",
"H 	c #B19555",
"I 	c #BD9F5B",
"J 	c #0E0F17",
"K 	c #151623",
"L 	c #8F8F8F",
"M 	c #5F5F5F",
"N 	c #372B12",
"O 	c #B2934F",
"P 	c #BC9E5A",
"Q 	c #131420",
"R 	c #1C1E30",
"S 	c #E9E6E3",
"T 	c #2F2E2D",
"U 	c #8E8E8E",
"V 	c #171004",
"W 	c #876523",
"X 	c #967532",
"Y 	c #A2823F",
"Z 	c #AC8C49",
"` 	c #171928",
" .	c #23263D",
"..	c #8C8A88",
"+.	c #1C1303",
"@.	c #7A5715",
"#.	c #91702E",
"$.	c #997836",
"%.	c #947637",
"&.	c #6E582A",
"*.	c #473C2A",
"=.	c #312F3A",
"-.	c #363A5C",
";.	c #2B2E49",
">.	c #1B1202",
",.	c #6F4C0A",
"'.	c #61450F",
").	c #4E3B19",
"!.	c #3D3737",
"~.	c #2B2E4A",
"{.	c #3F446C",
"].	c #434873",
"^.	c #323656",
"/.	c #060400",
"(.	c #0D0901",
"_.	c #040407",
":.	c #12131F",
"                            .   ",
".                             . ",
".     + @ @ @ @ @ @ @ @ @ @ @ # ",
".     $ % & * = - ; ; - = > > @ ",
". , ' @ ) ! ~ { ] ^ ^ ] { > > @ ",
"+ / ( _ : < [ } | 1 1 | } > > @ ",
"2 3 4 4 3 5 6 7 8 9 0 a 7 > > @ ",
"+ / b 4 4 c d e f g h i j > k @ ",
". + l 3 4 4 m n o p q r o s t @ ",
". u v m 4 4 3 w f x y z A B C @ ",
"D E F 4 4 _ G H f f f f I J K @ ",
"2 L 4 4 M N ^ O P A A P O Q R @ ",
"S T U E V W X Y Z | | Z Y `  .@ ",
". S ..# +.@.W #.$.%.&.*.=.-.;.@ ",
".     $ >.,.'.).!.~.{.].].].^.@ ",
".     $ /.(._.:.:.:.:.:.:.:.C @ "};
