/* XPM */
static char * myopen_xpm[] = {
"16 16 131 2",
"  	c #F8F5F2",
". 	c #F7F4F1",
"+ 	c #6D6B6A",
"@ 	c #000000",
"# 	c #1F1F1E",
"$ 	c #CAC7C5",
"% 	c #FDECCD",
"& 	c #FCDB9D",
"* 	c #FCDB9E",
"= 	c #FCDA9D",
"- 	c #CAAE7E",
"; 	c #2F2E2D",
"> 	c #FCEBCD",
", 	c #F8D69A",
"' 	c #F6D499",
") 	c #F4D297",
"! 	c #F2D096",
"~ 	c #685940",
"{ 	c #3B3224",
"] 	c #3A3224",
"^ 	c #3A3123",
"/ 	c #393023",
"( 	c #1E1B17",
"_ 	c #ABA8A6",
": 	c #3E3D3D",
"< 	c #F8E7C9",
"[ 	c #F1CE94",
"} 	c #EFCC93",
"| 	c #EDCA92",
"1 	c #ECC991",
"2 	c #EAC78F",
"3 	c #E9C58E",
"4 	c #E7C48D",
"5 	c #E6C28C",
"6 	c #E5C18B",
"7 	c #E4C08A",
"8 	c #C6A778",
"9 	c #FAF1E0",
"0 	c #D0AF71",
"a 	c #BA9B5F",
"b 	c #C4AB76",
"c 	c #C4AA76",
"d 	c #C2A875",
"e 	c #C0A673",
"f 	c #BDA472",
"g 	c #BBA271",
"h 	c #46433E",
"i 	c #2F2C28",
"j 	c #F8EFDE",
"k 	c #B29357",
"l 	c #FCF1DB",
"m 	c #FAE8C8",
"n 	c #F9E8C8",
"o 	c #F8E2BC",
"p 	c #F6DCAF",
"q 	c #F5DBAE",
"r 	c #F5DBAD",
"s 	c #F4DAAD",
"t 	c #F3D9AC",
"u 	c #F2D8AB",
"v 	c #F2D7AB",
"w 	c #E1C79B",
"x 	c #EFE6D3",
"y 	c #C7B491",
"z 	c #F1D2A0",
"A 	c #EECC93",
"B 	c #EBC890",
"C 	c #E9C68F",
"D 	c #E8C58E",
"E 	c #E6C38C",
"F 	c #E5C28C",
"G 	c #8F7957",
"H 	c #DFCFB1",
"I 	c #D2C2A9",
"J 	c #E4C18B",
"K 	c #E3C08A",
"L 	c #E3BF8A",
"M 	c #E2BF89",
"N 	c #E2BE89",
"O 	c #E1BD88",
"P 	c #463B2A",
"Q 	c #D4C2A2",
"R 	c #DBCAAF",
"S 	c #E0BC87",
"T 	c #E0BC86",
"U 	c #DFBB86",
"V 	c #DFBB85",
"W 	c #DDB984",
"X 	c #100F0F",
"Y 	c #B3A07F",
"Z 	c #F3E4CA",
"` 	c #DEBA85",
" .	c #DDB983",
"..	c #DCB882",
"+.	c #DBB781",
"@.	c #DAB681",
"#.	c #D9B580",
"$.	c #D8B47E",
"%.	c #D7B37D",
"&.	c #AD9065",
"*.	c #3F3F3C",
"=.	c #C0B19A",
"-.	c #EBD8B8",
";.	c #D6B27C",
">.	c #D5B17A",
",.	c #D3AF79",
"'.	c #D2AE77",
").	c #D1AD76",
"!.	c #CFAB74",
"~.	c #CEAA73",
"{.	c #CCA871",
"].	c #CAA66F",
"^.	c #89724B",
"/.	c #7C7B79",
"(.	c #201E1E",
"_.	c #F4F0E3",
":.	c #D7BC8F",
"<.	c #CAA66E",
"[.	c #C8A46C",
"}.	c #C6A26A",
"|.	c #C4A068",
"1.	c #C29E66",
"2.	c #C09C63",
"3.	c #BE9A61",
"4.	c #BB975E",
"5.	c #B9955B",
"6.	c #B69259",
"7.	c #4F3F26",
"8.	c #9B9997",
"9.	c #8C8A88",
"0.	c #E9E6E3",
"                            .   ",
".                             . ",
"+ @ @ @ @ # $                 . ",
"@ % & * = - ;                 . ",
"# > , ' ) ! ~ { ] ^ ^ / ( _ . . ",
": < [ } | 1 2 3 4 5 6 7 8 # $ . ",
": 9 0 a b b b b c d e f g h i + ",
"; j k l m n o p q r s t u v w : ",
"@ x y z A | 1 B 2 C D 4 E F G + ",
"; H I 5 6 J K L M N N O O O P $ ",
": Q R O O O O O S S T U V W X . ",
"# Y Z V ` W  ...+.@.#.$.%.&.: . ",
"*.=.-.%.;.>.,.'.).!.~.{.].^./.. ",
"(._.:.<.[.}.|.1.2.3.4.5.6.7.8.. ",
"9.X @ @ @ @ @ @ @ @ @ @ @ ; 0.. ",
".                             . "};
