/* XPM */
static char * mysave_xpm[] = {
"16 16 116 2",
"  	c #F8F5F2",
". 	c #F7F4F1",
"+ 	c #5D5C5B",
"@ 	c #000000",
"# 	c #3E3D3D",
"$ 	c #E9E6E3",
"% 	c #51557E",
"& 	c #545767",
"* 	c #A7A9B3",
"= 	c #C8CAD4",
"- 	c #C8C9D4",
"; 	c #C1C3CF",
"> 	c #6D7193",
", 	c #393B52",
"' 	c #2F2E2D",
") 	c #575A73",
"! 	c #8E92B5",
"~ 	c #E5E5E5",
"{ 	c #FFFFFF",
"] 	c #FDFDFD",
"^ 	c #FBFBFB",
"/ 	c #F8F8F8",
"( 	c #F5F5F5",
"_ 	c #F3F3F3",
": 	c #8A8FB8",
"< 	c #6F749D",
"[ 	c #565971",
"} 	c #767991",
"| 	c #FAFAFA",
"1 	c #F7F7F7",
"2 	c #F0F0F0",
"3 	c #EDEDED",
"4 	c #7379A5",
"5 	c #5E6181",
"6 	c #54576F",
"7 	c #9EA4D4",
"8 	c #FEFEFE",
"9 	c #F6F6F6",
"0 	c #EAEAEA",
"a 	c #797FB2",
"b 	c #757BAE",
"c 	c #52556D",
"d 	c #9AA0D0",
"e 	c #FCFCFC",
"f 	c #F9F9F9",
"g 	c #EFEFEF",
"h 	c #E8E8E8",
"i 	c #7177AA",
"j 	c #50536A",
"k 	c #969CCC",
"l 	c #F2F2F2",
"m 	c #ECECEC",
"n 	c #E7E7E7",
"o 	c #E6E6E6",
"p 	c #6C72A6",
"q 	c #4E5167",
"r 	c #9298C8",
"s 	c #E9E9E9",
"t 	c #686EA3",
"u 	c #4C4F65",
"v 	c #8E94C5",
"w 	c #9DA2CA",
"x 	c #9FA4C9",
"y 	c #898DB2",
"z 	c #868AB0",
"A 	c #8388AD",
"B 	c #8185AB",
"C 	c #7F83A9",
"D 	c #757AA3",
"E 	c #656A9F",
"F 	c #646A9F",
"G 	c #4B4D62",
"H 	c #898FC1",
"I 	c #858BBD",
"J 	c #676C91",
"K 	c #98989C",
"L 	c #989898",
"M 	c #58595C",
"N 	c #36395B",
"O 	c #3D4374",
"P 	c #60669B",
"Q 	c #484B60",
"R 	c #8187B9",
"S 	c #767992",
"T 	c #F1F1F1",
"U 	c #3C3E4B",
"V 	c #EBEBEB",
"W 	c #8C8C8C",
"X 	c #454863",
"Y 	c #353A6B",
"Z 	c #5C6297",
"` 	c #7C7B79",
" .	c #22232C",
"..	c #7D83B5",
"+.	c #6E7089",
"@.	c #D4D4D4",
"#.	c #4D506A",
"$.	c #CFCFCF",
"%.	c #CDCDCD",
"&.	c #7F7F7F",
"*.	c #585E93",
"=.	c #2E3144",
"-.	c #595B6D",
";.	c #BBBBBB",
">.	c #969696",
",.	c #B7B7B7",
"'.	c #B5B5B5",
").	c #737373",
"!.	c #444760",
"~.	c #555B91",
"{.	c #6D6B6A",
"].	c #1F1F1E",
"^.	c #1A1919",
"/.	c #2B2B2B",
"(.	c #2A2A2A",
"_.	c #1B1B1B",
"                            .   ",
". + @ @ @ @ @ @ @ @ @ @ @ # $ . ",
". @ % & * = = = = - - ; > , ' . ",
". @ ) ! ~ { { ] ^ / ( _ : < @ . ",
". @ [ } { { ] | 1 _ 2 3 4 5 @ . ",
". @ 6 7 8 ] | 9 _ 2 3 0 a b @ . ",
". @ c d e f 9 _ g 3 0 h b i @ . ",
". @ j k f ( l g m 0 n o i p @ . ",
". @ q r ( l g m s n o o p t @ . ",
". @ u v w x y z A B C D E F @ . ",
". @ G H I J K L L L M N O P @ . ",
". @ Q I R S T U V h W X Y Z @ . ",
". `  .R ..+.@.#.$.%.&.#.Y *.@ . ",
". . + =.a -.;.>.,.'.).!.Y ~.@ . ",
".     {.].^././.(.(._.@ @ @ + . ",
".                             . "};
