/* XPM */
static char *operator_integral_xpm[]={
"16 16 2 1",
". c None",
"# c #0000ff",
"......##...#....",
".....#..#.####..",
".....#.....#....",
".....#.....#....",
".....#.....#.#..",
".....#......#...",
".....#..........",
".....#..........",
".....#..........",
".....#..........",
".....#..........",
".....#..........",
".....#.....#....",
".....#....#.#...",
"..#..#....#.#...",
"...##......#...."};
