/* XPM */
static char *operator_func_xpm[]={
"16 16 2 1",
". c None",
"# c #0000ff",
".....##...#..#..",
"....#..#..#..#..",
"....#....#....#.",
"....#....#....#.",
"....#...##....##",
"..#####.#......#",
"..#####.#......#",
"....#...#......#",
"....#...#......#",
"....#...#......#",
"....#...#......#",
"....#...##....##",
"....#....#....#.",
"....#....#....#.",
".#..#.....#..#..",
"..##......#..#.."};
