/* XPM */
static char * operator_gt_xpm[] = {
"16 16 45 1",
" 	c #FFFFFF",
".	c #FFF9F9",
"+	c #FAFAFF",
"@	c #1C1CFF",
"#	c #6E6EFF",
"$	c #CACAFF",
"%	c #FEFEFF",
"&	c #EDEDFF",
"*	c #9797FF",
"=	c #3B3BFF",
"-	c #2727FF",
";	c #8383FF",
">	c #DEDEFF",
",	c #8282FF",
"'	c #3C3CFF",
")	c #9898FF",
"!	c #C9C9FF",
"~	c #6D6DFF",
"{	c #5151FF",
"]	c #ADADFF",
"^	c #E5E5FF",
"/	c #3D3DFF",
"(	c #0707FF",
"_	c #CFCFFF",
":	c #6060FF",
"<	c #2121FF",
"[	c #8484FF",
"}	c #EAEAFF",
"|	c #FCFCFF",
"1	c #AEAEFF",
"2	c #3F3FFF",
"3	c #3636FF",
"4	c #A5A5FF",
"5	c #F9F9FF",
"6	c #EFEFFF",
"7	c #8D8DFF",
"8	c #2525FF",
"9	c #5757FF",
"0	c #C7C7FF",
"a	c #6B6BFF",
"b	c #1F1FFF",
"c	c #7979FF",
"d	c #E3E3FF",
"e	c #9A9AFF",
"f	c #F6F6FF",
"          .     ",
"                ",
"   +            ",
"   @#$%         ",
"   &*=-;>       ",
"      >,-')&    ",
"        %!~@{]  ",
"           ^/(  ",
"         _:<[}  ",
"      |12345    ",
"    67890       ",
"   abcd         ",
"   ef           ",
"                ",
"                ",
"                "};
