/* XPM */
static char * operator_or_xpm[] = {
"16 16 3 1",
" 	c #FFFFFF",
".	c #FFF9F9",
"+	c #3F3FFF",
"          .     ",
"                ",
"                ",
"     +     +    ",
"     +     +    ",
"     +     +    ",
"     +     +    ",
"     +     +    ",
"     +     +    ",
"     +     +    ",
"     +     +    ",
"     +     +    ",
"     +     +    ",
"     +     +    ",
"                ",
"                "};
