/* XPM */
static char *operator_atan_xpm[]={
"16 16 3 1",
". c None",
"a c #0000ff",
"# c #ff0000",
"...............#",
"...............#",
"..........###..#",
"aaaaaa.........#",
"..a..a.........#",
"..a.............",
"..a...aa..a.aa..",
"..a..a..a..a..a.",
"..a..a..a..a..a.",
"..a..a..a..a..a.",
"..a..a..a..a..a.",
"..a..a..a..a..a.",
"..a..a..a..a..a.",
"..a...aa.a.a...a",
"................",
"................"};
