/* XPM */
static char * rocket_engine_xpm[] = {
"16 16 183 2",
"  	c #FFFFFF",
". 	c #FEFEFE",
"+ 	c #F8FFFB",
"@ 	c #FFF5FC",
"# 	c #FCFBFF",
"$ 	c #FFFBFF",
"% 	c #F8FEFB",
"& 	c #FCF6F8",
"* 	c #FEFFFF",
"= 	c #F9F7FC",
"- 	c #FFFFF6",
"; 	c #FDFBFF",
"> 	c #FFFEFD",
", 	c #F9F9FB",
"' 	c #FCFCFF",
") 	c #A5A5A5",
"! 	c #050505",
"~ 	c #040004",
"{ 	c #030A05",
"] 	c #070200",
"^ 	c #020200",
"/ 	c #060106",
"( 	c #010403",
"_ 	c #010200",
": 	c #030500",
"< 	c #000008",
"[ 	c #030403",
"} 	c #A6A6A4",
"| 	c #FDFDFA",
"1 	c #FAFCF1",
"2 	c #828282",
"3 	c #010101",
"4 	c #A79BA7",
"5 	c #000600",
"6 	c #000700",
"7 	c #A49EA7",
"8 	c #000202",
"9 	c #000000",
"0 	c #A2A39D",
"a 	c #000007",
"b 	c #808180",
"c 	c #FFFEFF",
"d 	c #7F7F7F",
"e 	c #FFF9FF",
"f 	c #A793AE",
"g 	c #000009",
"h 	c #ABA2B7",
"i 	c #FAF2F8",
"j 	c #BBA4BE",
"k 	c #03000B",
"l 	c #A5A396",
"m 	c #FFFFF2",
"n 	c #02000B",
"o 	c #7D7E82",
"p 	c #FEFFFA",
"q 	c #F7F5FF",
"r 	c #818181",
"s 	c #030303",
"t 	c #F6FEF1",
"u 	c #FAFE9D",
"v 	c #A4AEB0",
"w 	c #E9F0AA",
"x 	c #F9FFE5",
"y 	c #F1F295",
"z 	c #A0A088",
"A 	c #F9F6C3",
"B 	c #FFFFF1",
"C 	c #030000",
"D 	c #7F7F81",
"E 	c #FEFFF9",
"F 	c #FEFFF6",
"G 	c #EFEBA2",
"H 	c #FFF9A1",
"I 	c #FDFBA6",
"J 	c #FBFFF1",
"K 	c #F8F3BC",
"L 	c #FFFDA8",
"M 	c #F8F29C",
"N 	c #FFFFDC",
"O 	c #0E0700",
"P 	c #807E7F",
"Q 	c #F9FBF8",
"R 	c #FCE281",
"S 	c #FFE881",
"T 	c #F9B06B",
"U 	c #FFE183",
"V 	c #F9E581",
"W 	c #FFE67B",
"X 	c #F7AD62",
"Y 	c #F4EC89",
"Z 	c #F7EFA6",
"` 	c #080000",
" .	c #7E7E7E",
"..	c #020202",
"+.	c #FFE986",
"@.	c #FB9A70",
"#.	c #FFB866",
"$.	c #FBA953",
"%.	c #FAEC7C",
"&.	c #F2A95A",
"*.	c #FFB068",
"=.	c #F4A757",
"-.	c #FFE484",
";.	c #0E000F",
">.	c #7C827F",
",.	c #FBFDF0",
"'.	c #FFFDFF",
").	c #808080",
"!.	c #F4EF1F",
"~.	c #FAD836",
"{.	c #F9D230",
"].	c #FFCD39",
"^.	c #FAEC27",
"/.	c #FCD234",
"(.	c #FFD134",
"_.	c #F8D738",
":.	c #F5F22C",
"<.	c #050000",
"[.	c #7E817D",
"}.	c #FEFAFE",
"|.	c #F9F6FE",
"1.	c #B09E9A",
"2.	c #FFFAE7",
"3.	c #FCFC42",
"4.	c #FDF91E",
"5.	c #FFF133",
"6.	c #FBF618",
"7.	c #FDF82A",
"8.	c #FFECFF",
"9.	c #B0A5AD",
"0.	c #00001C",
"a.	c #7F7E7F",
"b.	c #FBFAE6",
"c.	c #C9C9C9",
"d.	c #0A0A0A",
"e.	c #010009",
"f.	c #020609",
"g.	c #040012",
"h.	c #0D0000",
"i.	c #FEF822",
"j.	c #EFF825",
"k.	c #0B0000",
"l.	c #080900",
"m.	c #000100",
"n.	c #CFD0C6",
"o.	c #FFFFE9",
"p.	c #FFFFF8",
"q.	c #FDFDFD",
"r.	c #A1A1A1",
"s.	c #00050B",
"t.	c #050F0E",
"u.	c #AB9EAF",
"v.	c #F1FB0C",
"w.	c #FAFF3A",
"x.	c #A49FA5",
"y.	c #00000B",
"z.	c #000300",
"A.	c #A39FB6",
"B.	c #FCFAFC",
"C.	c #F7FFF1",
"D.	c #FFFEF3",
"E.	c #EEFFDF",
"F.	c #FFF7FF",
"G.	c #FBFD97",
"H.	c #F5FA2A",
"I.	c #FEFCED",
"J.	c #FCFEFF",
"K.	c #FFFCFF",
"L.	c #FFFDF9",
"M.	c #FCFDFF",
"N.	c #F6F7F2",
"O.	c #FFF8F8",
"P.	c #F7FFFF",
"Q.	c #F2F95D",
"R.	c #FDFDB1",
"S.	c #FEF455",
"T.	c #F8FF65",
"U.	c #FEFFED",
"V.	c #FCF7FF",
"W.	c #FFFFED",
"X.	c #FEFEFC",
"Y.	c #FAFFF8",
"Z.	c #FFFFFB",
"                                ",
"    . + @ # $ % & * = - ; > , ' ",
"  ) ! ~ { ] ^ / ( _ : < [ } | 1 ",
"  2 3 4 5 6 5 7 8 5 9 0 a b - c ",
"  d 9 e f g h i j k l m n o p q ",
"  r s t u v w x y z A B C D * E ",
"  d 9 F G H I J K L M N O P Q - ",
"  r 3 R S T U V W X Y Z ` P F c ",
"   ...+.@.#.$.%.&.*.=.-.;.>.,.'.",
"   ...+.@.#.$.%.&.*.=.-.;.>.,.'.",
"  )...!.~.{.].^./.(._.:.<.[.}.|.",
"  r 9 1.2.3.4.5.6.7.8.9.0.a.b.  ",
"  c.d.e.f.g.h.i.j.k.l.m.m.n.o.p.",
"  q.r.s.6 t.u.v.w.x.y.z.A.B.'.'.",
"    . C.D.E.F.G.H.I.J.p.K.L.M.N.",
"  .   ' O.P.Q.R.S.T.U.V.W.X.Y.Z."};
