/* XPM */
static char *rslt_mgr_xpm[]={
"32 32 4 1",
". c None",
"# c #0000ff",
"b c #303030",
"a c #ff0000",
"................................",
"...#############################",
"...#..........................#.",
"...#...aa.....................#.",
"...#...aa...bbbbbbbbbbbbbbb...#.",
"...#..........................#.",
"...#..........................#.",
"...#...aa.....................#.",
"...#...aa...bbbbbbbbbbbbbbb...#.",
"...#..........................#.",
"...#..........................#.",
"...#..........................#.",
"...#..bbbbbbbbbbbbbbbbbbbbbb..#.",
"...#..b....................b..#.",
"...#..b....................b..#.",
"...#..b....................b..#.",
"...#..b......aaaaa.........b..#.",
"...#..b....aaa...aa........b..#.",
"...#..b...aa......aa.......b..#.",
"...#..b..aa........a.......b..#.",
"...#..b..a.........aa...aaab..#.",
"...#..baa...........aaaaa..b..#.",
"...#..ba...................b..#.",
"...#..b....................b..#.",
"...#..b....................b..#.",
"...#..b....................b..#.",
"...#..b....................b..#.",
"...#..bbbbbbbbbbbbbbbbbbbbbb..#.",
"...#..........................#.",
"############################..#.",
".#..........................#.#.",
"..#############################."};
