/* XPM */
static char * snap_xpm[] = {
"16 16 149 2",
"  	c #E6E6E6",
". 	c #E5E5E5",
"+ 	c #CCCCCC",
"@ 	c #737373",
"# 	c #989898",
"$ 	c #717171",
"% 	c #D9D9D9",
"& 	c #F9F9F9",
"* 	c #F1F1F1",
"= 	c #5B5B5B",
"- 	c #5A5A5A",
"; 	c #757575",
"> 	c #9D9D9D",
", 	c #909090",
"' 	c #2B2B2B",
") 	c #E1E1E1",
"! 	c #E0E0E0",
"~ 	c #252525",
"{ 	c #696969",
"] 	c #8C8C8C",
"^ 	c #868686",
"/ 	c #181818",
"( 	c #B7B7B7",
"_ 	c #E2E2E2",
": 	c #929292",
"< 	c #6F6F6F",
"[ 	c #626262",
"} 	c #2D2D2D",
"| 	c #A2A2A2",
"1 	c #A1A1A1",
"2 	c #828282",
"3 	c #353535",
"4 	c #A0A0A0",
"5 	c #343432",
"6 	c #52514F",
"7 	c #555453",
"8 	c #6A6967",
"9 	c #7C7C7C",
"0 	c #939393",
"a 	c #8C8B8B",
"b 	c #808080",
"c 	c #797978",
"d 	c #777777",
"e 	c #797979",
"f 	c #474747",
"g 	c #9C9A97",
"h 	c #999895",
"i 	c #8E8E8D",
"j 	c #5A5957",
"k 	c #575757",
"l 	c #666666",
"m 	c #717370",
"n 	c #666968",
"o 	c #535655",
"p 	c #525551",
"q 	c #6B6C6A",
"r 	c #6D6D6D",
"s 	c #3B3B3B",
"t 	c #807E75",
"u 	c #706D65",
"v 	c #5C5953",
"w 	c #34322F",
"x 	c #5E5E5E",
"y 	c #696D6C",
"z 	c #505454",
"A 	c #4B5051",
"B 	c #464B4D",
"C 	c #3C403F",
"D 	c #2F322C",
"E 	c #6D6C6B",
"F 	c #3F3F3F",
"G 	c #7F7C74",
"H 	c #6F6D64",
"I 	c #373632",
"J 	c #5F5F5F",
"K 	c #707273",
"L 	c #4C5050",
"M 	c #404242",
"N 	c #232323",
"O 	c #171717",
"P 	c #3B3D3E",
"Q 	c #353939",
"R 	c #504E4B",
"S 	c #3E3E3E",
"T 	c #7E7C73",
"U 	c #6F6C64",
"V 	c #5A5852",
"W 	c #363531",
"X 	c #4F5353",
"Y 	c #4B4F4E",
"Z 	c #595958",
"` 	c #ADADAD",
" .	c #606060",
"..	c #333434",
"+.	c #464C4E",
"@.	c #363532",
"#.	c #373737",
"$.	c #707070",
"%.	c #7D7A73",
"&.	c #6E6B64",
"*.	c #5A5751",
"=.	c #363431",
"-.	c #4E5151",
";.	c #3C4241",
">.	c #1E1F1E",
",.	c #585959",
"'.	c #444A4E",
").	c #4C4D4B",
"!.	c #393939",
"~.	c #D8D8D8",
"{.	c #7D7D7D",
"].	c #716E68",
"^.	c #6D6A62",
"/.	c #595651",
"(.	c #292825",
"_.	c #2F2F2F",
":.	c #2B2C2C",
"<.	c #383F41",
"[.	c #2A2D2C",
"}.	c #333333",
"|.	c #474848",
"1.	c #474A4D",
"2.	c #2A2E31",
"3.	c #2E2E2E",
"4.	c #D5D5D5",
"5.	c #C7C7C7",
"6.	c #4C4C4C",
"7.	c #494949",
"8.	c #616161",
"9.	c #8B8B8B",
"0.	c #888888",
"a.	c #303031",
"b.	c #3D4041",
"c.	c #3E4447",
"d.	c #4B4F52",
"e.	c #3F4243",
"f.	c #494A4A",
"g.	c #A7A7A7",
"h.	c #CDCDCD",
"i.	c #E4E4E4",
"j.	c #DFDFDF",
"k.	c #DBDBDB",
"l.	c #CACACA",
"m.	c #B8B8B8",
"n.	c #838484",
"o.	c #454545",
"p.	c #8E8E8E",
"q.	c #C3C3C3",
"r.	c #E3E3E3",
"                                ",
"            . + @ @ @ #         ",
"            . $ % & * =         ",
"            . - ; > , ' ) .     ",
"            ! ~ { ] ^ / ( .     ",
". _ : < [ { } ; # | 1 2 3 3 4 . ",
"] 5 6 7 8 9 _ 0 a b c ^ d e f . ",
"@ g h i j k l > m n o p q r s . ",
"@ t u v w x ^ y z A B C D E F . ",
"@ G H v I J K L M N O P Q R S . ",
"@ T U V W = X Y Z `  ...+.@.#._ ",
"$.%.&.*.=.x -.;.>.r 2 ,.'.).!.~.",
"{.].^./.(._.:.<.[.}.|.1.2.3.k 4.",
"5.$.6.7.8.9.0.a.b.c.d.e.f.g.h.) ",
"i._ ! j.k.% l.m.n.o.6.p.q.~.r.. ",
"            r.! k.% k.j._ .     "};
