/* XPM */
static char * tank_xpm[] = {
"16 16 151 2",
"  	c #FFFFFF",
". 	c #5B5B5D",
"+ 	c #535356",
"@ 	c #4F4F52",
"# 	c #4C4C4F",
"$ 	c #515153",
"% 	c #505052",
"& 	c #3B3B39",
"* 	c #59585B",
"= 	c #4D4D50",
"- 	c #4F4F51",
"; 	c #B8B5A9",
"> 	c #B5B1A3",
", 	c #B5B1A2",
"' 	c #85837B",
") 	c #B1AD9D",
"! 	c #BCB8A5",
"~ 	c #CAC5B2",
"{ 	c #F8F8F8",
"] 	c #484845",
"^ 	c #636261",
"/ 	c #A29F90",
"( 	c #DBDAD3",
"_ 	c #CECBC5",
": 	c #C8C7C1",
"< 	c #B5B3AB",
"[ 	c #4F4F4B",
"} 	c #857D5F",
"| 	c #958E6E",
"1 	c #827C64",
"2 	c #D6D6D6",
"3 	c #4B4A46",
"4 	c #4C4B46",
"5 	c #4E4E49",
"6 	c #494945",
"7 	c #4F4D47",
"8 	c #51514C",
"9 	c #58564D",
"0 	c #857A58",
"a 	c #7C714E",
"b 	c #91855C",
"c 	c #958964",
"d 	c #534E3E",
"e 	c #DED4B5",
"f 	c #E8E0C8",
"g 	c #CEC5AB",
"h 	c #C5BB9A",
"i 	c #C6BB95",
"j 	c #AFA481",
"k 	c #B0A580",
"l 	c #B4A679",
"m 	c #A0926A",
"n 	c #A19773",
"o 	c #897D56",
"p 	c #6F664C",
"q 	c #4C4735",
"r 	c #DACDA0",
"s 	c #F7F0DA",
"t 	c #4B4B4E",
"u 	c #F3EBCC",
"v 	c #E5D597",
"w 	c #DAC784",
"x 	c #C8B572",
"y 	c #B19E62",
"z 	c #988654",
"A 	c #847449",
"B 	c #72663C",
"C 	c #635C42",
"D 	c #413F36",
"E 	c #C1B99B",
"F 	c #EEE9D6",
"G 	c #E3D08B",
"H 	c #D3BD74",
"I 	c #BFAB65",
"J 	c #7A6C3F",
"K 	c #5B5337",
"L 	c #504D41",
"M 	c #A5A399",
"N 	c #D6D4CD",
"O 	c #E5E4DD",
"P 	c #C0B79C",
"Q 	c #ADA488",
"R 	c #8A8369",
"S 	c #77705A",
"T 	c #64604D",
"U 	c #4C493F",
"V 	c #474643",
"W 	c #393938",
"X 	c #989897",
"Y 	c #C5C5C4",
"Z 	c #D4D4D3",
"` 	c #CCCBCA",
" .	c #898884",
"..	c #7C7B77",
"+.	c #767572",
"@.	c #62615F",
"#.	c #4E4E4C",
"$.	c #474646",
"%.	c #383838",
"&.	c #979797",
"*.	c #C0C0C0",
"=.	c #CDCDCD",
"-.	c #C5C5C5",
";.	c #868686",
">.	c #7B7B7B",
",.	c #777777",
"'.	c #656565",
").	c #555555",
"!.	c #484848",
"~.	c #363636",
"{.	c #BEBEBE",
"].	c #C9C9C9",
"^.	c #A8A8A8",
"/.	c #767676",
"(.	c #646464",
"_.	c #5A5A5A",
":.	c #494949",
"<.	c #323232",
"[.	c #BBBBBB",
"}.	c #BCBCBC",
"|.	c #A7A7A7",
"1.	c #7C7C7C",
"2.	c #7A7A7A",
"3.	c #636363",
"4.	c #606060",
"5.	c #4F4F4F",
"6.	c #3B3B3B",
"7.	c #8F8F8F",
"8.	c #BFBFBF",
"9.	c #B9B9B9",
"0.	c #989898",
"a.	c #878787",
"b.	c #5B5B5B",
"c.	c #595959",
"d.	c #848484",
"e.	c #AFAFAF",
"f.	c #9E9E9E",
"g.	c #919191",
"h.	c #818181",
"i.	c #6E6E6E",
"j.	c #4C4C4C",
"k.	c #373737",
"l.	c #929292",
"m.	c #A5A5A5",
"n.	c #AAAAAA",
"o.	c #999999",
"p.	c #8B8B8B",
"q.	c #7E7E7E",
"r.	c #727272",
"s.	c #717171",
"t.	c #8E8E8E",
"  . . + @ # # $ # % # &         ",
"  * = - ; > , ' ) ! ~ & & {     ",
"  ] ^ / ( _ : < [ } | 1 & & 2   ",
"  3 4 5 6 5 7 8 9 0 a b c & &   ",
"  d e f g h i j k l m n o p &   ",
"  q r s t u v w x y z A B C &   ",
"  D E F t t G H I t t J K L &   ",
"  & M N O t P Q t R S T U V &   ",
"  W X Y Z ` t t  ...+.@.#.$.&   ",
"  %.&.*.=.-.t t ;.>.,.'.).!.&   ",
"  ~.&.{.].t ^.&.t >./.(._.:.&   ",
"  <.&.[.t }.|.&.t 1.2.3.4.5.&   ",
"  6.7.t 8.9.^.0.a.t t b.3.c.&   ",
"  & t d.e.9.^.f.g.h.i.j.k.j.&   ",
"  & l.m.n.o.p.d.q.,.r.,.s.t.&   ",
"  & & & & & & & & & & & & & &   "};
