/* XPM */
static char * turbine_engine_xpm[] = {
"16 16 149 2",
"  	c #FFFFFF",
". 	c #FEFEFE",
"+ 	c #FBFBFB",
"@ 	c #FEFDFC",
"# 	c #FFFBFB",
"$ 	c #FFFDFD",
"% 	c #FEFEFD",
"& 	c #F9FEFD",
"* 	c #FAFDFE",
"= 	c #FEFCFE",
"- 	c #FAFEFE",
"; 	c #FBFFFF",
"> 	c #FCFFFF",
", 	c #FBFEFE",
"' 	c #FDFEFD",
") 	c #F7FFFF",
"! 	c #F9F8FE",
"~ 	c #FFFAFF",
"{ 	c #FFFBFC",
"] 	c #FCFFFE",
"^ 	c #F5FBFB",
"/ 	c #FFFEFF",
"( 	c #FDFFFC",
"_ 	c #FCFFFD",
": 	c #FBFFFD",
"< 	c #F9FEFC",
"[ 	c #616161",
"} 	c #82A2B9",
"| 	c #94A0BA",
"1 	c #D2C6DE",
"2 	c #D5C4D4",
"3 	c #FCF7F9",
"4 	c #FFFEFB",
"5 	c #FFF8F8",
"6 	c #FFF7F5",
"7 	c #FFFBF8",
"8 	c #FFFDFA",
"9 	c #FEFEFB",
"0 	c #FCFEFD",
"a 	c #FCFCFC",
"b 	c #262626",
"c 	c #4C80A8",
"d 	c #7990BA",
"e 	c #D4CCF3",
"f 	c #CBB4D0",
"g 	c #FFF2F8",
"h 	c #FFF3EF",
"i 	c #E3CAC6",
"j 	c #DAB2B3",
"k 	c #ECCACB",
"l 	c #FCE7E6",
"m 	c #FFF9F7",
"n 	c #FDFFFE",
"o 	c #FAEFEE",
"p 	c #331D1F",
"q 	c #607288",
"r 	c #555C76",
"s 	c #676D83",
"t 	c #AAB0BC",
"u 	c #B78991",
"v 	c #BF6C68",
"w 	c #985441",
"x 	c #954E3A",
"y 	c #F2A794",
"z 	c #F1AC9D",
"A 	c #FFE8E2",
"B 	c #F7F8FC",
"C 	c #FEFAF7",
"D 	c #EADDDC",
"E 	c #CEBABB",
"F 	c #EAB8B1",
"G 	c #F9C3C1",
"H 	c #CAA2A0",
"I 	c #C8B5AF",
"J 	c #DABDBF",
"K 	c #A6888A",
"L 	c #A09991",
"M 	c #CAC0C9",
"N 	c #FFF7FF",
"O 	c #F8D5DC",
"P 	c #FEECEF",
"Q 	c #F9FFFD",
"R 	c #FFFFFD",
"S 	c #F3E8E7",
"T 	c #847474",
"U 	c #A4A09D",
"V 	c #B6ABA9",
"W 	c #A79C96",
"X 	c #A9A196",
"Y 	c #B89C96",
"Z 	c #916E6C",
"` 	c #9A837D",
" .	c #B2A293",
"..	c #FFEDE0",
"+.	c #F1D1C6",
"@.	c #FAE8E1",
"#.	c #FFFCF9",
"$.	c #FDF7F7",
"%.	c #211515",
"&.	c #426489",
"*.	c #5C7190",
"=.	c #8C8CA4",
"-.	c #D0BCC8",
";.	c #EEB3BB",
">.	c #D6858C",
",.	c #96434B",
"'.	c #963628",
").	c #E59280",
"!.	c #EFB5A1",
"~.	c #FFF1E5",
"{.	c #FBF9FA",
"].	c #766F70",
"^.	c #B7B4D1",
"/.	c #B1B1C8",
"(.	c #DFD8E7",
"_.	c #E0D1DA",
":.	c #FAF7F6",
"<.	c #F8F7F8",
"[.	c #FDF7FA",
"}.	c #F8E9EC",
"|.	c #FFF6F7",
"1.	c #FCF7F3",
"2.	c #FCFEFC",
"3.	c #FAFCFD",
"4.	c #EEFFFF",
"5.	c #F5FFFE",
"6.	c #F4FCF3",
"7.	c #F6FFF5",
"8.	c #F7FFF4",
"9.	c #FAFEF0",
"0.	c #FDFEF0",
"a.	c #FFFAF5",
"b.	c #FFF7F6",
"c.	c #FEFEFF",
"d.	c #FBFCFE",
"e.	c #FFFAF9",
"f.	c #FEFFFD",
"g.	c #FFF1FB",
"h.	c #F9FEFF",
"i.	c #FFF6FF",
"j.	c #FFF8FF",
"k.	c #F8FEFF",
"l.	c #FFFDFF",
"m.	c #FDFDFD",
"n.	c #F5FFF0",
"o.	c #FCFFF6",
"p.	c #FCFDF7",
"q.	c #FEFBFE",
"r.	c #FDFEFF",
"                                ",
"                                ",
". +   @ # $ % & * = - ; > , '   ",
"    + ) ! ~ { ] ^ / ( _ : <     ",
"  + [ } | 1 2 3 4 5 6 7 8 9 0   ",
"  a b c d e f g h i j k l m n   ",
"4 o p q r s t u v w x y z A B   ",
"C D E F G H I J K L M N O P Q   ",
"R S T U V W X Y Z `  ...+.@.#.  ",
"R $.%.&.*.=.-.;.>.,.'.).!.~.)   ",
"{.$ ].^./.(._.:.<.[.}.|.1.2.3.  ",
"/ a   ) 4.5.4 6.7.7 8.9.0.a.b.  ",
"  c.d.e.f./ g.h.; i.j./ ; k.l.  ",
"  m.  n.o.p.4 q.  r.            ",
"                                ",
"                                "};
