/* XPM */
static char * channel_xpm[] = {
"16 16 16 1",
" 	c None",
".	c #FFFFFF",
"+	c #4040FF",
"@	c #8080FF",
"#	c #BF0043",
"$	c #BF4082",
"%	c #FF8082",
"&	c #FF4043",
"*	c #BFBFFF",
"=	c #FFBFC0",
"-	c #4000C0",
";	c #8040C0",
">	c #8585FF",
",	c #FF7F81",
"'	c #FF0004",
")	c #FFFEFE",
"................",
"................",
"........+@@@....",
"..@.#$%.@&%@..*.",
"*@+@$@$@@&=+@++@",
"..*.$-=.+;@@.@..",
"....*@*......>..",
".....@.......@..",
".....+@@@@@@@+..",
"...,=...........",
"...'%...........",
"...'%...........",
"%'''''')........",
"=%%'&%%)........",
"...'%...........",
"...'%..........."};
