/* XPM */
static char *detail_xpm[]={
"16 16 4 1",
". c None",
"# c #0000ff",
"a c #303030",
"b c #ff0000",
"................",
"....###########.",
"....#.........#.",
"....#.aaaaa...#.",
"....#..a......#.",
"....#..a......#.",
"....#..aaaaaa.#.",
"....#..a..a...#.",
"....#.....aaa.#.",
"....#.....a...#.",
"..bbbbb...a...#.",
"...a..b...aaa.#.",
"..a.aab...a...#.",
".a.aa.b########.",
".aa.............",
"................"};
