/* XPM */
static char * direct_xpm[] = {
"16 16 180 2",
"  	c #FFFFFF",
". 	c #FEFEFE",
"+ 	c #FBFBFB",
"@ 	c #F9F9F9",
"# 	c #FCFCFC",
"$ 	c #FEFDFF",
"% 	c #FCFEF5",
"& 	c #D8DAD9",
"* 	c #7E8183",
"= 	c #AAA9A6",
"- 	c #E9E9E6",
"; 	c #FAF9F6",
"> 	c #FDFDFA",
", 	c #FEFBFA",
"' 	c #FFFEFE",
") 	c #FEFCFE",
"! 	c #F6FCF6",
"~ 	c #FBFAF3",
"{ 	c #FEFDF3",
"] 	c #FDFFF5",
"^ 	c #FCFBFF",
"/ 	c #FBF3FF",
"( 	c #FAF3FF",
"_ 	c #FFFBFF",
": 	c #A79ED5",
"< 	c #ACB3E2",
"[ 	c #000118",
"} 	c #00040C",
"| 	c #020808",
"1 	c #B1B3B2",
"2 	c #CCCBD0",
"3 	c #FEF8FF",
"4 	c #FAFDFF",
"5 	c #F5FDFF",
"6 	c #F3FFF9",
"7 	c #F9FFE8",
"8 	c #FFFFFA",
"9 	c #FEFFF4",
"0 	c #FBFFED",
"a 	c #A8A6E5",
"b 	c #B9BADE",
"c 	c #C9D0BE",
"d 	c #E0E7B3",
"e 	c #E1E5A8",
"f 	c #DEDCAC",
"g 	c #0E0300",
"h 	c #0B0000",
"i 	c #D5D5D4",
"j 	c #FFFFF6",
"k 	c #FFF9FF",
"l 	c #FFF9E3",
"m 	c #F6FBFF",
"n 	c #F7FDFF",
"o 	c #EDFFFF",
"p 	c #A2ACF4",
"q 	c #BCA9DD",
"r 	c #D4C6BD",
"s 	c #E2D6A2",
"t 	c #FFF3AB",
"u 	c #F5E3A1",
"v 	c #E8D0A0",
"w 	c #E0C3A3",
"x 	c #EBD5D2",
"y 	c #1E00F8",
"z 	c #F2FFFF",
"A 	c #EFFFFF",
"B 	c #F5FFFF",
"C 	c #F7FFE4",
"D 	c #8E93EE",
"E 	c #7F91D9",
"F 	c #7D93E8",
"G 	c #6F9EED",
"H 	c #74A0E7",
"I 	c #6E9ADB",
"J 	c #7299DC",
"K 	c #7B9FE9",
"L 	c #6A8ADD",
"M 	c #7B99F1",
"N 	c #709CE1",
"O 	c #000BFB",
"P 	c #0000F0",
"Q 	c #F6FEFF",
"R 	c #FFFEF8",
"S 	c #F4FFFF",
"T 	c #1406F1",
"U 	c #0000F3",
"V 	c #0003FF",
"W 	c #0002F6",
"X 	c #0000F6",
"Y 	c #0106FF",
"Z 	c #0000FA",
"` 	c #0000FC",
" .	c #0809FF",
"..	c #0000F5",
"+.	c #0300FA",
"@.	c #0008E5",
"#.	c #0008F5",
"$.	c #0D01FB",
"%.	c #F4FAF6",
"&.	c #F7FFF6",
"*.	c #0000BB",
"=.	c #070BDC",
"-.	c #0002B9",
";.	c #0501C6",
">.	c #0400C7",
",.	c #0704CD",
"'.	c #0300C9",
").	c #0000C4",
"!.	c #0100C7",
"~.	c #0503C7",
"{.	c #0900FF",
"].	c #FBFEFE",
"^.	c #F7FEEF",
"/.	c #F9FCFF",
"(.	c #A6A0E8",
"_.	c #B2B1E8",
":.	c #CACCC5",
"<.	c #DCDDAF",
"[.	c #ECE9AC",
"}.	c #F0E5B2",
"|.	c #7D6957",
"1.	c #796157",
"2.	c #E3D6D5",
"3.	c #7E7BFA",
"4.	c #F4FFF1",
"5.	c #FAFCFD",
"6.	c #FEF9FF",
"7.	c #FBFCFF",
"8.	c #FCFFF4",
"9.	c #FCFFFF",
"0.	c #A5A4D0",
"a.	c #B7B1D7",
"b.	c #01000C",
"c.	c #010400",
"d.	c #000300",
"e.	c #B2B6A8",
"f.	c #D5DAD3",
"g.	c #F8FCFB",
"h.	c #FEFCFC",
"i.	c #F9FFEA",
"j.	c #FBFFFF",
"k.	c #FFFFF3",
"l.	c #FFFFEF",
"m.	c #FAFBFF",
"n.	c #FAFDF2",
"o.	c #AAAFAB",
"p.	c #000013",
"q.	c #5A5962",
"r.	c #CCCBD9",
"s.	c #FCFEFF",
"t.	c #F2F7FB",
"u.	c #F9FFFF",
"v.	c #F7FFF9",
"w.	c #FBFDF7",
"x.	c #F8F7FF",
"y.	c #FFFFE8",
"z.	c #F6F2E9",
"A.	c #FEF4FC",
"B.	c #FBFAFF",
"C.	c #FCFFF8",
"D.	c #FEFFFB",
"E.	c #F9FBFA",
"F.	c #F3F4EE",
"G.	c #FFFFFB",
"H.	c #FFFDFF",
"I.	c #FFFCFF",
"J.	c #F6F8F7",
"K.	c #FFFEFF",
"L.	c #FDFDFB",
"M.	c #FFFFFD",
"N.	c #F6FBF1",
"O.	c #FEFFFA",
"P.	c #FFFEFD",
"Q.	c #FFFDFD",
"R.	c #FFF9FA",
"S.	c #FFFCFB",
"T.	c #F9FDF3",
"U.	c #FDFCFF",
"V.	c #F6F4F5",
"W.	c #FFFFF4",
"                                ",
"                                ",
"  .   .   +     @   @   # +     ",
"$ % & * = - ; > , ' ) ! ~ { ] ^ ",
"/ ( _ : < [ } | 1 2 $ 3 4 5 6 7 ",
"8 9 0 a b c d e f g h i j k l k ",
"m n o p q r s t u v w x y z A B ",
"C D E F G H I J K L M N O P Q R ",
"S T U V W X Y Z `  ...+.@.#.$.%.",
"&.*.=.-.;.>.,.'.).'.!.~...{.Q k ",
"].^./.(._.:.<.[.}.|.1.2.3.4.5.6.",
"7.8.9.0.a.b.c.d.e.f.g.h.i.j.k.l.",
"m.n.o.p.q.r.$ s.t.u.v.w.x.y.z.A.",
"B.C.D.7.E.D.F.G.. H.I.j.J.K._ _ ",
"  # L.M.N.O.G.P.Q.R.S.T.U.I.V.W.",
"                                "};
