/* XPM */
static char *do_mnv_xpm[]={
"32 32 5 1",
". c None",
"a c #0000ff",
"# c #0080ff",
"c c #00ffff",
"b c #ff0000",
"................................",
"................................",
"................................",
"................................",
"................................",
"................................",
"...#a##.........................",
"....#a##........................",
".....#a#........................",
"......#a........................",
".......#a.......................",
"........#a......................",
".........#a.....................",
"..........#aaaa.................",
"...........#aaaaaa..............",
"...........##aaaaaaa...b........",
"...........###aaaaaaaaa.b.......",
"...........####aaaaaaaaaab......",
"............####aaaaaaaaaa......",
"............#####aaaaaa....c...c",
"............####a#aa........ccc.",
"............#######a............",
".............####..#a...........",
".............####...#a..........",
"...........b.###.....#a.........",
"............b###......#aaaaaaaa.",
".............b##.......#aaaaaa..",
".......................##aaaa...",
"................c......###......",
".................cc....##..c....",
"...................ccc......cccc",
"................................"};
