/* XPM */
static char * gain_xpm[] = {
"32 32 20 1",
" 	c #000000",
".	c #FFFFFF",
"+	c #787878",
"@	c #D3D3D3",
"#	c #B6B6B6",
"$	c #030303",
"%	c #AEAEAE",
"&	c #090909",
"*	c #F6F6F6",
"=	c #777777",
"-	c #010101",
";	c #E0E0E0",
">	c #1E1E1E",
",	c #060606",
"'	c #999999",
")	c #C7C7C7",
"!	c #393939",
"~	c #D1D1D1",
"{	c #DFDFDF",
"]	c #B2B2B2",
"                                ",
"                                ",
"  ............................  ",
"  ............................  ",
"  ............................  ",
"  ............................  ",
"  ............................  ",
"  .............+ @............  ",
"  ............#$ @............  ",
"  ...........%&  @............  ",
"  .........*=-   @............  ",
"  ........;> ,'  @............  ",
"  ........) !~.  @............  ",
"   .......{]...  @......... ..  ",
"  . ...........  @.......... .  ",
"  .. ..........  @...........   ",
"  . ...........  @.......... .  ",
"   ............  @......... ..  ",
"  .............  @............  ",
"  .............  @............  ",
"  .............  @............  ",
"  .............  @............  ",
"  .............  @............  ",
"  .............  @............  ",
"  .............  @............  ",
"  ............................  ",
"  ............................  ",
"  ............................  ",
"  ............................  ",
"  ............................  ",
"                                ",
"                                "};
