/* XPM */
static char * kinemat_xpm[] = {
"32 32 92 2",
"  	c None",
". 	c #000000",
"+ 	c #FFFFFF",
"@ 	c #E7E7E7",
"# 	c #131313",
"$ 	c #D3D3D3",
"% 	c #1E1E1E",
"& 	c #AFAFAF",
"* 	c #676767",
"= 	c #171717",
"- 	c #030303",
"; 	c #2F2F2F",
"> 	c #535353",
", 	c #CCCCCC",
"' 	c #1C1C1C",
") 	c #B8B8B8",
"! 	c #0C0C0C",
"~ 	c #181818",
"{ 	c #DADADA",
"] 	c #C5C5C5",
"^ 	c #C0C0C0",
"/ 	c #8E8E8E",
"( 	c #565656",
"_ 	c #060606",
": 	c #0E0E0E",
"< 	c #F8F8F8",
"[ 	c #1F1F1F",
"} 	c #777777",
"| 	c #101010",
"1 	c #4B4B4B",
"2 	c #5B5B5B",
"3 	c #FDFDFD",
"4 	c #A0A0A0",
"5 	c #444444",
"6 	c #464646",
"7 	c #5E5E5E",
"8 	c #2C2C2C",
"9 	c #A3A3A3",
"0 	c #F6F6F6",
"a 	c #424242",
"b 	c #636363",
"c 	c #FEFEFE",
"d 	c #B2B2B2",
"e 	c #202020",
"f 	c #F5F5F5",
"g 	c #3D3D3D",
"h 	c #E6E6E6",
"i 	c #3B3B3B",
"j 	c #5A5A5A",
"k 	c #2E2E2E",
"l 	c #E2E2E2",
"m 	c #020202",
"n 	c #848484",
"o 	c #2B2B2B",
"p 	c #040404",
"q 	c #EFEFEF",
"r 	c #C9C9C9",
"s 	c #838383",
"t 	c #505050",
"u 	c #252525",
"v 	c #898989",
"w 	c #959595",
"x 	c #666666",
"y 	c #9E9E9E",
"z 	c #242424",
"A 	c #D4D4D4",
"B 	c #333333",
"C 	c #373737",
"D 	c #F4F4F4",
"E 	c #2A2A2A",
"F 	c #E5E5E5",
"G 	c #C3C3C3",
"H 	c #303030",
"I 	c #8F8F8F",
"J 	c #656565",
"K 	c #4F4F4F",
"L 	c #6F6F6F",
"M 	c #7C7C7C",
"N 	c #8C8C8C",
"O 	c #E8E8E8",
"P 	c #F7F7F7",
"Q 	c #010101",
"R 	c #DDDDDD",
"S 	c #0F0F0F",
"T 	c #1B1B1B",
"U 	c #090909",
"V 	c #A6A6A6",
"W 	c #A9A9A9",
"X 	c #474747",
"Y 	c #434343",
"Z 	c #9F9F9F",
"` 	c #E4E4E4",
"                                                                ",
"  . . . . . . . . . . . . . . . . . . . . . . . . . . . . . .   ",
"  . + + + + + + + + + + + + + + + + + + + + + + + + + + + + .   ",
"  . + + + + + + + + + + + + + + + + + + + + + + + + + + + + .   ",
"  . + + + + + + + + + + + + + + + + + + + + + + + + + + + + .   ",
"  . + @ # + + $ % & @ # + @ . * + + @ = + @ - ; ; ; > + + + .   ",
"  . + @ # + , ' ) + @ # + @ ! ~ { + @ = + @ # + + + + + + + .   ",
"  . + @ # ] ' ^ + + @ # + @ # / ( + @ = + @ # + + + + + + + .   ",
"  . + @ _ : ] + + + @ # + @ # < [ , @ = + @ - ; ; ; } + + + .   ",
"  . + @ | 1 2 3 + + @ # + @ # + 4 5 @ = + @ # + + + + + + + .   ",
"  . + @ # < 6 7 3 + @ # + @ # + 3 8 9 = + @ # + + + + + + + .   ",
"  . + @ # + 0 a b c @ # + @ # + + d e = + @ # + + + + + + + .   ",
"  . + @ # + + f g * h # + @ # + + + i = + @ - ; ; ; > + + + .   ",
"  . . + + + + + + + + + + + + + + + + + + + + + + + + . + + .   ",
"  . + . + + + + + + + + + + + + + + + + + + + + + + + + . + .   ",
"  . + + . + + + + + + + + + + + + + + + + + + + + + + + + . .   ",
"  . + . + + + + + + + + + + + + + + + + + + + + + + + + . + .   ",
"  . . + + + + + + + + + + + + + + + + + + + + + + + + . + + .   ",
"  . + + + + + + + + + + + + + + + + + + + + + + + + + + + + .   ",
"  . + + + @ . j + + + k = + + + l m n + ; ; o p ; ; ; + + + .   ",
"  . + + + @ # ; q + r i = + + + s t u + + + @ = + + + + + + .   ",
"  . + + + @ # v w + x y = + + + z A B ] + + @ = + + + + + + .   ",
"  . + + + @ # @ C D E F = + + G H + I J + + @ = + + + + + + .   ",
"  . + + + @ # + K L M @ = + + b N + O # P + @ = + + + + + + .   ",
"  . + + + @ # + d Q R @ = + f S T [ [ U V + @ = + + + + + + .   ",
"  . + + + @ # + + + + @ = + 9 6 + + + W X + @ = + + + + + + .   ",
"  . + + + @ # + + + + @ = + Y Z + + + 0 S ` @ = + + + + + + .   ",
"  . + + + + + + + + + + + + + + + + + + + + + + + + + + + + .   ",
"  . + + + + + + + + + + + + + + + + + + + + + + + + + + + + .   ",
"  . + + + + + + + + + + + + + + + + + + + + + + + + + + + + .   ",
"  . . . . . . . . . . . . . . . . . . . . . . . . . . . . . .   ",
"                                                                "};
