/* XPM */
static char * mysaveas_xpm[] = {
"16 16 141 2",
"  	c #F8F5F2",
". 	c #F7F4F1",
"+ 	c #5D5C5B",
"@ 	c #000000",
"# 	c #3E3D3D",
"$ 	c #E9E6E3",
"% 	c #51557E",
"& 	c #545767",
"* 	c #A7A9B3",
"= 	c #C8CAD4",
"- 	c #C8C9D4",
"; 	c #C1C3CF",
"> 	c #555876",
", 	c #050509",
"' 	c #100F0F",
") 	c #7C7B79",
"! 	c #575A73",
"~ 	c #8E92B5",
"{ 	c #E5E5E5",
"] 	c #FFFFFF",
"^ 	c #FDFDFD",
"/ 	c #FBFBFB",
"( 	c #F8F8F8",
"_ 	c #F5F5F5",
": 	c #F3F3F3",
"< 	c #1C1D1E",
"[ 	c #9A4535",
"} 	c #D95732",
"| 	c #120302",
"1 	c #565971",
"2 	c #767991",
"3 	c #FAFAFA",
"4 	c #F7F7F7",
"5 	c #F0F0F0",
"6 	c #868686",
"7 	c #585858",
"8 	c #89221F",
"9 	c #922118",
"0 	c #0E0000",
"a 	c #54576F",
"b 	c #9EA4D4",
"c 	c #FEFEFE",
"d 	c #F6F6F6",
"e 	c #EDEDED",
"f 	c #3B3B3B",
"g 	c #AEACA8",
"h 	c #ACA5A5",
"i 	c #685A5A",
"j 	c #2F2E2D",
"k 	c #52556D",
"l 	c #9AA0D0",
"m 	c #FCFCFC",
"n 	c #F9F9F9",
"o 	c #EFEFEF",
"p 	c #B0B0B0",
"q 	c #3F3626",
"r 	c #8B7A5A",
"s 	c #A89675",
"t 	c #1A1A1A",
"u 	c #BAB8B6",
"v 	c #50536A",
"w 	c #969CCC",
"x 	c #F2F2F2",
"y 	c #ECECEC",
"z 	c #EAEAEA",
"A 	c #2B2B2B",
"B 	c #CCB282",
"C 	c #CDC6BB",
"D 	c #564523",
"E 	c #4E5167",
"F 	c #9298C8",
"G 	c #E9E9E9",
"H 	c #919191",
"I 	c #5E5138",
"J 	c #D3A75D",
"K 	c #A6854A",
"L 	c #0F0D0D",
"M 	c #4C4F65",
"N 	c #8E94C4",
"O 	c #9DA2CA",
"P 	c #9FA4C9",
"Q 	c #898DB2",
"R 	c #868AB0",
"S 	c #8388AD",
"T 	c #151619",
"U 	c #D5AB65",
"V 	c #E6AE51",
"W 	c #4B3B1C",
"X 	c #3D4162",
"Y 	c #4B4D62",
"Z 	c #898FC1",
"` 	c #858BBD",
" .	c #676C91",
"..	c #98989C",
"+.	c #989898",
"@.	c #525252",
"#.	c #6C5939",
"$.	c #E7A945",
"%.	c #AC8137",
"&.	c #06070D",
"*.	c #60669B",
"=.	c #484B60",
"-.	c #8187B9",
";.	c #767992",
">.	c #F1F1F1",
",.	c #3C3E4B",
"'.	c #0F0F0F",
").	c #D7AB5E",
"!.	c #DC9B33",
"~.	c #3C2F15",
"{.	c #212442",
"].	c #5C6297",
"^.	c #22232C",
"/.	c #7D83B5",
"(.	c #6E7089",
"_.	c #D4D4D4",
":.	c #4D506A",
"<.	c #251F12",
"[.	c #DEBF7E",
"}.	c #A88B4E",
"|.	c #0D0E14",
"1.	c #353A6B",
"2.	c #585E93",
"3.	c #2E3144",
"4.	c #797FB2",
"5.	c #595B6D",
"6.	c #BBBBBB",
"7.	c #737373",
"8.	c #0D0D0D",
"9.	c #695B3E",
"0.	c #1B170F",
"a.	c #343750",
"b.	c #555B91",
"c.	c #6D6B6A",
"d.	c #1F1F1E",
"e.	c #1A1919",
"f.	c #202020",
"g.	c #040404",
"h.	c #020202",
"i.	c #060606",
"j.	c #D9D6D4",
"                            .   ",
"+ @ @ @ @ @ @ @ @ @ @ @ # $ .   ",
"@ % & * = = = = - - ; > , ' )   ",
"@ ! ~ { ] ] ^ / ( _ : < [ } |   ",
"@ 1 2 ] ] ^ 3 4 : 5 6 7 8 9 0   ",
"@ a b c ^ 3 d : 5 e f g h i j   ",
"@ k l m n d : o e p q r s t u   ",
"@ v w n _ x o y z A B C D @ .   ",
"@ E F _ x o y G H I J K L @ .   ",
"@ M N O P Q R S T U V W X @ .   ",
"@ Y Z `  ...+.@.#.$.%.&.*.@ .   ",
"@ =.` -.;.>.,.'.).!.~.{.].@ .   ",
") ^.-./.(._.:.<.[.}.|.1.2.@ .   ",
". + 3.4.5.6.7.8.9.0.a.1.b.@ .   ",
"    c.d.e.A f.g.h.i.@ @ @ + .   ",
"            . u j..         .   "};
