/* XPM */
static char * operator_ge_xpm[] = {
"16 16 52 1",
" 	c #FFFFFF",
".	c #8080FF",
"+	c #EEEEFF",
"@	c #FFF9F9",
"#	c #CECEFF",
"$	c #5E5EFF",
"%	c #7F7FFF",
"&	c #7E7EFF",
"*	c #EDEDFF",
"=	c #5D5DFF",
"-	c #7C7CFF",
";	c #F2F2FF",
">	c #8383FF",
",	c #5757FF",
"'	c #F7F7FF",
")	c #8E8EFF",
"!	c #C6C6FF",
"~	c #FAFAFF",
"{	c #9999FF",
"]	c #5454FF",
"^	c #BDBDFF",
"/	c #FEFEFF",
"(	c #B5B5FF",
"_	c #FCFCFF",
":	c #A4A4FF",
"<	c #5353FF",
"[	c #B2B2FF",
"}	c #BFBFFF",
"|	c #9494FF",
"1	c #AFAFFF",
"2	c #A8A8FF",
"3	c #FDFDFF",
"4	c #C9C9FF",
"5	c #5959FF",
"6	c #8A8AFF",
"7	c #F5F5FF",
"8	c #5555FF",
"9	c #9E9EFF",
"0	c #FBFBFF",
"a	c #D2D2FF",
"b	c #F1F1FF",
"c	c #F9F9FF",
"d	c #DADAFF",
"e	c #6363FF",
"f	c #7777FF",
"g	c #ECECFF",
"h	c #E1E1FF",
"i	c #6A6AFF",
"j	c #6F6FFF",
"k	c #E6E6FF",
"l	c #6868FF",
"m	c #E0E0FF",
"   .+     @     ",
"   #$.+         ",
"     #$%+       ",
"       #$&*     ",
"         #=&*   ",
"           #=-  ",
"           ;>,  ",
"         '),!   ",
"       ~{]^ /(  ",
"     _:<[/ }]|  ",
"   /1<23 4567   ",
"   890 a$.b     ",
"   c defg       ",
"   hijk         ",
"   lm           ",
"                "};
