/* XPM */
static char * operator_lt_xpm[] = {
"16 16 46 1",
" 	c #FFFFFF",
".	c #FFF9F9",
"+	c #E9E9FF",
"@	c #9292FF",
"#	c #3535FF",
"$	c #F5F5FF",
"%	c #A7A7FF",
"&	c #4A4AFF",
"*	c #1E1EFF",
"=	c #7373FF",
"-	c #D0D0FF",
";	c #FCFCFF",
">	c #BCBCFF",
",	c #6060FF",
"'	c #1818FF",
")	c #5C5CFF",
"!	c #B9B9FF",
"~	c #D1D1FF",
"{	c #7575FF",
"]	c #4646FF",
"^	c #A3A3FF",
"/	c #F4F4FF",
"(	c #0000FF",
"_	c #3D3DFF",
":	c #E2E2FF",
"<	c #CBCBFF",
"[	c #2323FF",
"}	c #8888FF",
"|	c #ECECFF",
"1	c #E7E7FF",
"2	c #7E7EFF",
"3	c #2020FF",
"4	c #6666FF",
"5	c #D4D4FF",
"6	c #F8F8FF",
"7	c #A0A0FF",
"8	c #3232FF",
"9	c #4343FF",
"0	c #B2B2FF",
"a	c #FEFEFF",
"b	c #C2C2FF",
"c	c #5353FF",
"d	c #2727FF",
"e	c #9090FF",
"f	c #E0E0FF",
"g	c #7676FF",
"          .     ",
"                ",
"                ",
"           +@#  ",
"        $%&*=-  ",
"     ;>,')!;    ",
"   ~{*]^/       ",
"   (_:          ",
"   <)[}|        ",
"     12345      ",
"       67890;   ",
"         abcde  ",
"            fg  ",
"                ",
"                ",
"                "};
