/* XPM */
static char *output_icon_xpm[]={
"16 16 5 1",
". c None",
"# c #0000ff",
"c c #800000",
"b c #c00000",
"a c #ff0000",
"................",
"................",
"......#########.",
"......#.a.....##",
".aaaaaaaaaa...#.",
"......#.a.....#.",
"......#.......#.",
"......#.b.....#.",
".bbbbbbbbbb...#.",
"......#.b.....#.",
"......#.......#.",
"......#.c.....#.",
".cccccccccc...#.",
".....########.#.",
"......#......##.",
".......#######.."};
