/* XPM */
static char * propeller_xpm[] = {
"16 16 86 1",
" 	c #FFFFFF",
".	c #939393",
"+	c #9B9B9B",
"@	c #F7F7F9",
"#	c #F9F9FB",
"$	c #FCFCFE",
"%	c #FAFAFA",
"&	c #9A9A9A",
"*	c #C8C8C8",
"=	c #020202",
"-	c #A4A4A4",
";	c #FBFBFB",
">	c #FEFEFE",
",	c #A5A5A5",
"'	c #030303",
")	c #C4C4C4",
"!	c #949494",
"~	c #020201",
"{	c #9C9C9A",
"]	c #FDFDFB",
"^	c #FFFFFD",
"/	c #9D9D9B",
"(	c #000000",
"_	c #F7F7F7",
":	c #FDFDFD",
"<	c #4C4E4D",
"[	c #000100",
"}	c #FEFFFF",
"|	c #F1F3F2",
"1	c #F7F9F8",
"2	c #040605",
"3	c #4E4E4E",
"4	c #F8F8F8",
"5	c #CBCCCD",
"6	c #000103",
"7	c #010204",
"8	c #FCFDFF",
"9	c #020305",
"0	c #000002",
"a	c #CACACA",
"b	c #F6F6F6",
"c	c #FBFCFE",
"d	c #000004",
"e	c #939498",
"f	c #9A9B9F",
"g	c #F9F9F9",
"h	c #F9FAFE",
"i	c #98999D",
"j	c #D2D3D7",
"k	c #CCCDD1",
"l	c #95969A",
"m	c #FCFCFC",
"n	c #929397",
"o	c #D1D2D6",
"p	c #919296",
"q	c #8B8C8F",
"r	c #010205",
"s	c #7F8083",
"t	c #C8C9CC",
"u	c #818284",
"v	c #000003",
"w	c #8A8A8A",
"x	c #9E9E9E",
"y	c #919392",
"z	c #FCFEFD",
"A	c #F9FBFA",
"B	c #9C9E9D",
"C	c #010101",
"D	c #9F9F9F",
"E	c #4E4E4C",
"F	c #FCFCFA",
"G	c #FBFBF9",
"H	c #070707",
"I	c #CCCCCC",
"J	c #080808",
"K	c #969696",
"L	c #9D9D9D",
"M	c #A1A1A1",
"N	c #FCFCFD",
"O	c #FEFEFF",
"P	c #F5F5F7",
"Q	c #979797",
"R	c #C9C9C9",
"S	c #BCBCBC",
"T	c #C5C5C5",
"U	c #BBBBBB",
" .+  @ # $ % +& ",
"  *=- ;%>;%,') >",
" % !~{]^^]/(& ;_",
"% : <[}}|123    ",
" 4  5678}90a4  b",
"; _ c}defd}  g  ",
" _  chijkl}%  gm",
" m >}hnkop}: :> ",
" m >}hnkop}: :> ",
":g:mqrsttuvwm>; ",
"  bx[y}z}ABCD  ;",
"g  (E^]^F^G3( : ",
" _CH* b :  IJ( :",
"m&..:m %: ;;K.L>",
":M> N $O P :% Q%",
"RS            TU"};
