/* XPM */
static char * success_xpm[] = {
"16 16 52 1",
" 	c None",
".	c #000000",
"+	c #323F32",
"@	c #8FCF8E",
"#	c #010B01",
"$	c #A3CFA3",
"%	c #41C540",
"&	c #0E6D0D",
"*	c #576F57",
"=	c #82E681",
"-	c #0FB90D",
";	c #13B411",
">	c #063706",
",	c #0D110D",
"'	c #B0EBAF",
")	c #12C911",
"!	c #0AC008",
"~	c #0DAF0B",
"{	c #032203",
"]	c #0C0F0C",
"^	c #7D9F7D",
"/	c #60E560",
"(	c #03CC03",
"_	c #04C704",
":	c #012401",
"<	c #7C9F7C",
"[	c #77B777",
"}	c #2F3F2F",
"|	c #ABF7AB",
"1	c #28D728",
"2	c #16D216",
"3	c #014D01",
"4	c #0A100A",
"5	c #A2E8A2",
"6	c #8CEF8C",
"7	c #407640",
"8	c #82C782",
"9	c #69E769",
"0	c #42DD42",
"a	c #155F15",
"b	c #85C785",
"c	c #A5F6A5",
"d	c #92F192",
"e	c #84EE84",
"f	c #6DE86D",
"g	c #388E38",
"h	c #0C100C",
"i	c #98CC98",
"j	c #99F399",
"k	c #5CA45C",
"l	c #9DCD9D",
"m	c #90CA90",
"                ",
"                ",
"         ..     ",
"         +@#    ",
"        .$%&.   ",
"       .*=-;>   ",
"       ,')!~{   ",
"   ], .^/(_:    ",
"  .<[.}|123.    ",
"  4567890a.     ",
"  4bcdefg.      ",
"   hi|jk.       ",
"    ,lm4        ",
"     .,         ",
"                ",
"                "};
