/* XPM */
static char *acft_mgr_xpm[]={
"32 32 4 1",
". c None",
"a c #000000",
"# c #0000ff",
"b c #ff0000",
"...............##...............",
"...............##...............",
"...............##...............",
"...............##...............",
"...............##...............",
"...............##...............",
"...............##...............",
"...............##...............",
"...............##...............",
".............#a##a#.............",
"...........###a##a###...........",
".........#####a##a#####.........",
".......#######a##a#######.......",
".....#########a##a#########.....",
"...###########a##a###########...",
".#############a##a#############.",
"##############a##a##############",
"###b##########a##a###########b##",
"##############.##.##############",
"#######........##........#######",
"...............##...............",
"...............##...............",
"...............##...............",
"...............##...............",
"...............##...............",
"...............##...............",
"..............a##a..............",
".............#a##a#.............",
"............##a##a##............",
"...........###a##a###...........",
"..........####a##a####..........",
".........#####.##.#####........."};
