/* XPM */
static char * actuator_xpm[] = {
"32 32 105 2",
"  	c None",
". 	c #000000",
"+ 	c #FFFFFF",
"@ 	c #FEFEFE",
"# 	c #FCFCFC",
"$ 	c #F4F4F4",
"% 	c #F2F2F2",
"& 	c #F8F8F8",
"* 	c #FBFBFB",
"= 	c #D9D9D9",
"- 	c #949494",
"; 	c #808080",
"> 	c #848484",
", 	c #B5B5B5",
"' 	c #F1F1F1",
") 	c #DCDCDC",
"! 	c #DADADA",
"~ 	c #E9E9E9",
"{ 	c #FAFAFA",
"] 	c #FDFDFD",
"^ 	c #777777",
"/ 	c #2C2C2C",
"( 	c #333333",
"_ 	c #2A2A2A",
": 	c #474747",
"< 	c #ACACAC",
"[ 	c #D0D0D0",
"} 	c #8A8A8A",
"| 	c #818181",
"1 	c #8C8C8C",
"2 	c #979797",
"3 	c #989898",
"4 	c #A5A5A5",
"5 	c #D6D6D6",
"6 	c #DEDEDE",
"7 	c #F6F6F6",
"8 	c #F9F9F9",
"9 	c #464646",
"0 	c #9A9A9A",
"a 	c #747474",
"b 	c #525252",
"c 	c #C8C8C8",
"d 	c #CCCCCC",
"e 	c #E0E0E0",
"f 	c #CFCFCF",
"g 	c #B6B6B6",
"h 	c #B8B8B8",
"i 	c #A7A7A7",
"j 	c #838383",
"k 	c #828282",
"l 	c #8E8E8E",
"m 	c #C7C7C7",
"n 	c #969696",
"o 	c #8D8D8D",
"p 	c #A0A0A0",
"q 	c #C6C6C6",
"r 	c #ECECEC",
"s 	c #5C5C5C",
"t 	c #404040",
"u 	c #D7D7D7",
"v 	c #EFEFEF",
"w 	c #EEEEEE",
"x 	c #ADADAD",
"y 	c #898989",
"z 	c #757575",
"A 	c #4C4C4C",
"B 	c #868686",
"C 	c #B4B4B4",
"D 	c #ABABAB",
"E 	c #424242",
"F 	c #EAEAEA",
"G 	c #E3E3E3",
"H 	c #BEBEBE",
"I 	c #A2A2A2",
"J 	c #B9B9B9",
"K 	c #909090",
"L 	c #BCBCBC",
"M 	c #7A7A7A",
"N 	c #BFBFBF",
"O 	c #9B9B9B",
"P 	c #3F3F3F",
"Q 	c #414141",
"R 	c #D8D8D8",
"S 	c #A4A4A4",
"T 	c #E8E8E8",
"U 	c #D3D3D3",
"V 	c #CACACA",
"W 	c #CBCBCB",
"X 	c #E2E2E2",
"Y 	c #CECECE",
"Z 	c #F3F3F3",
"` 	c #858585",
" .	c #E7E7E7",
"..	c #A8A8A8",
"+.	c #919191",
"@.	c #A9A9A9",
"#.	c #A6A6A6",
"$.	c #D4D4D4",
"%.	c #EDEDED",
"&.	c #4F4F4F",
"*.	c #9D9D9D",
"=.	c #DDDDDD",
"-.	c #5A5A5A",
";.	c #C0C0C0",
">.	c #E1E1E1",
". . . . . . . . . . . . . . . . . . . . . . . . . . . . . . . . ",
". . . . . . . . . . . . . . . . . . . . . . . . . . . . . . . . ",
". . + + + + + + + + + + + + + + + + + + + + + + + + + + + + . . ",
". . + + + + + + + + + + + + + + + + + + + + + + + + + + + + . . ",
". . + + + + + + + + + + + + + + + + + + + + + + + + + + + + . . ",
". . + + + + + + + + + + + + + + + + + + + + + + + + + + + + . . ",
". . + + + + + + + + + + + + + + + + + + + + + + + + + + + + . . ",
". . + + @ @ @ @ @ + + + + + + + + + + + + + + + + + + + + + . . ",
". . + @ # $ % % & @ @ @ @ @ + + + + + + + + + + + + + + + + . . ",
". . + * = - ; > , ' % ) ! ~ & { { { ] @ @ @ @ + + + + + + + . . ",
". . # ! ^ / ( _ : < [ } | 1 2 3 3 4 5 = = 6 7 { { 8 { # @ @ . . ",
". . $ - / 9 0 a _ b c d e f g , , h i j k l m , n o p q e 8 . . ",
". . % | ( 0 r [ s t m u v ] # * { 8 w = 5 [ x y z 9 A B C ' . . ",
". . + > _ a [ D E E m 5 r r F G H g h l j I p 3 J K L w { @ . . ",
". . & , : _ s E _ M d < , l j I p 0 N ! ! F 8 8 ' O ! @ + + . . ",
". . @ % x b P Q M R 6 S N ! ! F 8 { # @ @ @ + @ 6 } T @ + + . . ",
". . + @ % U V W X * # { # @ @ @ + + + + + + + @ Y I 8 + + + . . ",
". . + + @ ] ] ] ] @ + + + + + + + + + + + + + { I , # + + + . . ",
". . + + + + + + + + + + + + + + + + + + + + @ T y ) @ + + + . . ",
". . + + + + + + + + + + + + + + + + + + + + @ Y 2 $ + + + + . . ",
". . + + + + + + + + + + + + + + + + + + # @ Z n , # + + + + . . ",
". . + + + + + + + + + + + + + + + + + * U F g `  .@ + + + + . . ",
". . + + + + + + + + + + + + + + + + @ F ..c k f ] + + + + + . . ",
". . + + + + + + + + + + + + + + + + @ U S +.@.7 @ + + + + + . . ",
". . + + + + + + + + + + + + + + + + { #.; | $.%.@ + + + + + . . ",
". . + + + + + + + + + + + + + + + @  .s &.*...U # + + + + + . . ",
". . + + + + + + + + + + + + + + + @ =.-.` ;.~ * + + + + + + . . ",
". . + + + + + + + + + + + + + + + + & >.Z # @ + + + + + + + . . ",
". . + + + + + + + + + + + + + + + + @ @ @ + + + + + + + + + . . ",
". . + + + + + + + + + + + + + + + + + + + + + + + + + + + + . . ",
". . . . . . . . . . . . . . . . . . . . . . . . . . . . . . . . ",
". . . . . . . . . . . . . . . . . . . . . . . . . . . . . . . . "};
