/* XPM */
static char * actuator_xpm[] = {
"32 32 103 2",
"  	c #FFFFFF",
". 	c #FEFEFE",
"+ 	c #FCFCFC",
"@ 	c #F4F4F4",
"# 	c #F2F2F2",
"$ 	c #F8F8F8",
"% 	c #FBFBFB",
"& 	c #D9D9D9",
"* 	c #949494",
"= 	c #808080",
"- 	c #848484",
"; 	c #B5B5B5",
"> 	c #F1F1F1",
", 	c #DCDCDC",
"' 	c #DADADA",
") 	c #E9E9E9",
"! 	c #FAFAFA",
"~ 	c #FDFDFD",
"{ 	c #777777",
"] 	c #2C2C2C",
"^ 	c #333333",
"/ 	c #2A2A2A",
"( 	c #474747",
"_ 	c #ACACAC",
": 	c #D0D0D0",
"< 	c #8A8A8A",
"[ 	c #818181",
"} 	c #8C8C8C",
"| 	c #979797",
"1 	c #989898",
"2 	c #A5A5A5",
"3 	c #D6D6D6",
"4 	c #DEDEDE",
"5 	c #F6F6F6",
"6 	c #F9F9F9",
"7 	c #464646",
"8 	c #9A9A9A",
"9 	c #747474",
"0 	c #525252",
"a 	c #C8C8C8",
"b 	c #CCCCCC",
"c 	c #E0E0E0",
"d 	c #CFCFCF",
"e 	c #B6B6B6",
"f 	c #B8B8B8",
"g 	c #A7A7A7",
"h 	c #838383",
"i 	c #828282",
"j 	c #8E8E8E",
"k 	c #C7C7C7",
"l 	c #969696",
"m 	c #8D8D8D",
"n 	c #A0A0A0",
"o 	c #C6C6C6",
"p 	c #ECECEC",
"q 	c #5C5C5C",
"r 	c #404040",
"s 	c #D7D7D7",
"t 	c #EFEFEF",
"u 	c #EEEEEE",
"v 	c #ADADAD",
"w 	c #898989",
"x 	c #757575",
"y 	c #4C4C4C",
"z 	c #868686",
"A 	c #B4B4B4",
"B 	c #ABABAB",
"C 	c #424242",
"D 	c #EAEAEA",
"E 	c #E3E3E3",
"F 	c #BEBEBE",
"G 	c #A2A2A2",
"H 	c #B9B9B9",
"I 	c #909090",
"J 	c #BCBCBC",
"K 	c #7A7A7A",
"L 	c #BFBFBF",
"M 	c #9B9B9B",
"N 	c #3F3F3F",
"O 	c #414141",
"P 	c #D8D8D8",
"Q 	c #A4A4A4",
"R 	c #E8E8E8",
"S 	c #D3D3D3",
"T 	c #CACACA",
"U 	c #CBCBCB",
"V 	c #E2E2E2",
"W 	c #CECECE",
"X 	c #F3F3F3",
"Y 	c #858585",
"Z 	c #E7E7E7",
"` 	c #A8A8A8",
" .	c #919191",
"..	c #A9A9A9",
"+.	c #A6A6A6",
"@.	c #D4D4D4",
"#.	c #EDEDED",
"$.	c #4F4F4F",
"%.	c #9D9D9D",
"&.	c #DDDDDD",
"*.	c #5A5A5A",
"=.	c #C0C0C0",
"-.	c #E1E1E1",
"                                                                ",
"                                                                ",
"                                                                ",
"                                                                ",
"                                                                ",
"                                                                ",
"                                                                ",
"        . . . . .                                               ",
"      . + @ # # $ . . . . .                                     ",
"      % & * = - ; > # , ' ) $ ! ! ! ~ . . . .                   ",
"    + ' { ] ^ / ( _ : < [ } | 1 1 2 3 & & 4 5 ! ! 6 ! + . .     ",
"  . @ * ] 7 8 9 / 0 a b c d e ; ; f g h i j k ; l m n o c 6     ",
"  . # [ ^ 8 p : q r k s t ~ + % ! 6 u & 3 : v w x 7 y z A > .   ",
"  . # - / 9 : B C C k 3 p p D E F e f j h G n 1 H I J u ! .     ",
"    $ ; ( / q C / K b _ ; j h G n 8 L ' ' D 6 6 > M ' .         ",
"    . # v 0 N O K P 4 Q L ' ' D 6 ! + . . .   . 4 < R .         ",
"      . # S T U V % + ! + . . .               . W G 6           ",
"        . ~ ~ ~ ~ .                           ! G ; +           ",
"                                            . R w , .           ",
"                                            . W | @             ",
"                                        + . X l ; +             ",
"                                      % S D e Y Z .             ",
"                                    . D ` a i d ~               ",
"                                    . S Q  ...5 .               ",
"                                    ! +.= [ @.#..               ",
"                                  . Z q $.%.` S +               ",
"                                  . &.*.Y =.) %                 ",
"                                    $ -.X + .                   ",
"                                    . . .                       ",
"                                                                ",
"                                                                ",
"                                                                "};
