/* XPM */
static char *aero_icon_xpm[]={
"16 16 4 1",
". c None",
"a c #0000ff",
"b c #00ffff",
"# c #ff0000",
".......#........",
"......###.......",
".......#........",
"..aa...#........",
"..aaa..#........",
"bb.aaa.#...#....",
"....aaa######...",
".....aaa...#....",
".......aa.......",
"bbbb....aa......",
".........aa.....",
"...........a....",
"....b.......a...",
"bbbbbbb......a..",
"....b.........a.",
"................"};
