/* XPM */
static char *ap_icon_xpm[]={
"16 16 5 1",
". c None",
"c c #000040",
"# c #0000ff",
"a c #00ffff",
"b c #ff0000",
"................",
".....#######....",
".aaa.#..b..#....",
"ca.ac#.b.b.#cccc",
".aaa.#.bbb.#.c..",
"..c..#.b.b.#.c..",
"..c..#######.c..",
"..c..........c..",
"..c..........c..",
"..c..#######.c..",
"..c..#.b.b.#.c..",
"..c..#.b.b.#.c..",
"..ccc#.bbb.#cc..",
".....#.b.b.#....",
".....#######....",
"................"};
