/* XPM */
static char *eng_mgr_xpm[]={
"32 32 8 1",
". c None",
"e c #000000",
"# c #0000ff",
"c c #00ffff",
"f c #303030",
"d c #800000",
"b c #c00000",
"a c #ff0000",
"................................",
"................................",
"................................",
"................................",
"...........#########............",
"........###.........###.........",
"......##...............##.......",
".....#...................#......",
"....#.......#######.......#.....",
"...#...a.###.......###.....#...b",
"..#..b.a..............#..a..#.b.",
".#...b.a..cccccccc.......a......",
"...d.b.a..c......c.......a.a....",
"...d.b.a..c......c.aa....a.a...a",
"...d.b.a..cccccccc..a.aa.a.a..a.",
"...d.b.a.................a.a....",
"..edfbeaeeeeeeeeeeeeeeeeeafa....",
"...d.b.a.................a.a....",
"...d.b.a..cccccccc.......a.a....",
"...d.b.a..c......c..a.aa.a.a..a.",
"...d.b.a..c......c.aa....a.a...a",
".#...b.a..cccccccc.......a.a....",
"..#..b.a..............#..a......",
"...#...a.###.......###...a.#..b.",
"....#..a....#######.......#....b",
".....#...................#......",
"......##...............##.......",
"........###.........###.........",
"...........#########............",
"................................",
"................................",
"................................"};
