/* XPM */
static char * failure_xpm[] = {
"16 16 75 1",
" 	c None",
".	c #000000",
"+	c #3B2929",
"@	c #2C1E1D",
"#	c #392120",
"$	c #2B1817",
"%	c #593C3B",
"&	c #EF7C7A",
"*	c #F15756",
"=	c #5B1817",
"-	c #8F504F",
";	c #E66563",
">	c #E54947",
",	c #2A0A09",
"'	c #664140",
")	c #F24544",
"!	c #F2403E",
"~	c #F13F3E",
"{	c #591616",
"]	c #8E4B4A",
"^	c #E35F5D",
"/	c #E13533",
"(	c #DD3230",
"_	c #360C0B",
":	c #0F0909",
"<	c #C33736",
"[	c #EE3C3B",
"}	c #E93A38",
"|	c #E53736",
"1	c #E04B49",
"2	c #D82F2D",
"3	c #851C1B",
"4	c #0F0303",
"5	c #BA2D2B",
"6	c #E03432",
"7	c #DC3230",
"8	c #D42D2A",
"9	c #831B19",
"0	c #8B3A37",
"a	c #D93532",
"b	c #D42C2A",
"c	c #CF2A27",
"d	c #CC2725",
"e	c #4A0D0C",
"f	c #8A3835",
"g	c #D84844",
"h	c #CB2725",
"i	c #C82522",
"j	c #C42220",
"k	c #C0201D",
"l	c #460B0A",
"m	c #5F2422",
"n	c #D5423E",
"o	c #CB2724",
"p	c #C72522",
"q	c #7B1614",
"r	c #9C1A18",
"s	c #BC1E1B",
"t	c #B91C18",
"u	c #B61A16",
"v	c #210403",
"w	c #5E1F1D",
"x	c #C82724",
"y	c #C3221F",
"z	c #781412",
"A	c #0C0101",
"B	c #931512",
"C	c #B21814",
"D	c #AF1612",
"E	c #200403",
"F	c #55100E",
"G	c #470B0A",
"H	c #0B0101",
"I	c #4C0907",
"J	c #350605",
"                ",
"                ",
"                ",
"    .+@.  .#$.  ",
"    %&*=..-;>,  ",
"    ')!~{]^/(_  ",
"    :<[}|1(23.  ",
"     4567289.   ",
"     .0abcde.   ",
"    .fgchijkl.  ",
"    mnopqrstuv  ",
"    wxyz.ABCDE  ",
"    .FG.  HIJ.  ",
"                ",
"                ",
"                "};
