/* XPM */
static char *fcs_icon_xpm[]={
"16 16 4 1",
". c None",
"b c #0000ff",
"a c #00ffff",
"# c #ff0000",
"................",
"...#............",
"..###...........",
"...#...........a",
"...b.....aa..aa.",
"...b....a#aaa...",
"...b.....aa.....",
"...b......b.....",
"..b........b....",
"..b........b....",
"..b.........b...",
"..b.........b...",
"..b..........b..",
".#bbbbbbbbbbb#..",
"................",
"................"};
