/* XPM */
static char *fileheader_icon_xpm[]={
"16 16 3 1",
". c None",
"# c #0000ff",
"a c #ff0000",
"................",
"................",
"................",
"......#####.....",
".....#.....#....",
"....#.......#...",
"...#...aaa......",
"...#..aaaaa.....",
"...#..aaaaa.....",
"...#..aaaaa.....",
"...#...aaa......",
"....#.......#...",
".....#.....#....",
"......#####.....",
"................",
"................"};
