/* XPM */
static char * general_xpm[] = {
"16 16 67 1",
" 	c None",
".	c #BFBFBF",
"+	c #808080",
"@	c #7A7880",
"#	c #A2A0AB",
"$	c #28282B",
"%	c #8A706A",
"&	c #B8958E",
"*	c #2E2523",
"=	c #C0BBD4",
"-	c #B8B2CF",
";	c #2E2C34",
">	c #EFA594",
",	c #EE9A87",
"'	c #3B2622",
")	c #ADA7C8",
"!	c #2B2A32",
"~	c #EB8B75",
"{	c #3A221D",
"]	c #DBD8E6",
"^	c #BCB8D2",
"/	c #F9DBD4",
"(	c #EFA18F",
"_	c #F6CCC2",
":	c #504E5B",
"<	c #8C88A2",
"[	c #F1B0A1",
"}	c #68443C",
"|	c #C28679",
"1	c #BF715F",
"2	c #A29CBC",
"3	c #DC826E",
"4	c #0B0A0C",
"5	c #0E0807",
"6	c #8A846D",
"7	c #B8B092",
"8	c #2E2C24",
"9	c #687B68",
"0	c #8CA48C",
"a	c #232923",
"b	c #F2DF9D",
"c	c #F9F2D8",
"d	c #F3E2A8",
"e	c #F0DB90",
"f	c #3C3724",
"g	c #E0EFE0",
"h	c #9CCC9C",
"i	c #D2E8D2",
"j	c #81BE81",
"k	c #203020",
"l	c #F1DE98",
"m	c #696040",
"n	c #C1AE68",
"o	c #EED680",
"p	c #3C3620",
"q	c #395439",
"r	c #74A174",
"s	c #599359",
"t	c #1C2D1C",
"u	c #CAC4AF",
"v	c #E2D090",
"w	c #B8D3B8",
"x	c #67AA67",
"y	c #C4B580",
"z	c #DFC878",
"A	c #0F0D08",
"B	c #070B07",
".++++++++++++++.",
"+@#####$%&&&&&*+",
"+#=----;&>,,,,'+",
"+#-))))!&,~~~~{+",
"+#-]^))!&/(_(~{+",
"+#-^:<)!&[}|}1{+",
"+#-)<2)!&,1313{+",
"+$;!!!!4*'{{{{5+",
"+6777778900000a+",
"+7bcdeef0ghihjk+",
"+7elmnop0hqrqst+",
"+7cluvop0irwrxt+",
"+7dmymnp0hqrqst+",
"+7enznzp0jsxsxt+",
"+8fppppAakttttB+",
".++++++++++++++."};
