/* XPM */
static char *mass_icon_xpm[]={
"16 16 3 1",
". c None",
"# c #0000ff",
"a c #ff0000",
"................",
"..#############.",
"..#############.",
"..#############.",
"..###.#####.###.",
"..##...###...##.",
"........a.......",
"........a.......",
"........a.......",
"........a.......",
"........a.......",
"......a.a.a.....",
".......aaa......",
"........a.......",
"........a.......",
"................"};
