/* XPM */
static char * mynew_xpm[] = {
"16 16 71 1",
" 	c #F8F5F2",
".	c #F7F4F1",
"+	c #2F2E2D",
"@	c #000000",
"#	c #E7E7E7",
"$	c #E8E8E8",
"%	c #E9E9E9",
"&	c #EAEAEA",
"*	c #EBEBEB",
"=	c #EDEDED",
"-	c #EEEEEE",
";	c #EFEFEF",
">	c #F0F0F0",
",	c #F1F1F1",
"'	c #F2F2F2",
")	c #F3F3F3",
"!	c #F4F4F4",
"~	c #6E7E6E",
"{	c #11500F",
"]	c #295028",
"^	c #C8C8C8",
"/	c #B7B7B7",
"(	c #186E15",
"_	c #54BE55",
":	c #23A11F",
"<	c #526151",
"[	c #999999",
"}	c #5C5C5C",
"|	c #1A7817",
"1	c #A8EFB1",
"2	c #284727",
"3	c #D9D6D4",
"4	c #F5F5F5",
"5	c #6D756D",
"6	c #269124",
"7	c #44B443",
"8	c #2BA528",
"9	c #1A4018",
"0	c #F6F6F6",
"a	c #F7F7F7",
"b	c #466645",
"c	c #4CB94C",
"d	c #86DB8C",
"e	c #F8F8F8",
"f	c #F9F9F9",
"g	c #6F776F",
"h	c #1C8219",
"i	c #FAFAFA",
"j	c #FBFBFB",
"k	c #FCFCFC",
"l	c #9E9E9E",
"m	c #5F5F5F",
"n	c #284827",
"o	c #FDFDFD",
"p	c #FEFEFE",
"q	c #FFFFFF",
"r	c #BFBFBF",
"s	c #4E5E4D",
"t	c #717971",
"u	c #224A21",
"v	c #898989",
"w	c #DFDFDF",
"x	c #B8B8B8",
"y	c #797979",
"z	c #4E4D4C",
"A	c #AFAFAF",
"B	c #656565",
"C	c #191818",
"D	c #CAC7C5",
"E	c #100F0F",
"F	c #5D5C5B",
"              . ",
".+@@@@@@@@@@@+. ",
".@#$%&*=-;>,'@. ",
".@%&*=-;>,')!@. ",
".@*=-;>,'~{]^@. ",
".@-;>,')/(_:<@. ",
".@>,')![}|1:2@3 ",
".@')!4567717789 ",
".@!40abcdd1ddc| ",
".@0aefgh::1:::9 ",
".@efijklm|1:n@3 ",
".@ijkopqr(_:s@. ",
".@kopqqqqt{uv@. ",
".@pqqqqqqqwxyz. ",
".@qqqqqqq-ABCD. ",
".+@@@@@@@@EF3.. "};
