/* XPM */
static char *node_xpm[]={
"32 32 3 1",
". c None",
"a c #000000",
"# c #ff0000",
"................................",
"................................",
"................................",
"...........................###..",
".........................##.a#..",
"........................#..a.#..",
"..........................a.#...",
".........................a..#...",
"........................a..#....",
".......................a........",
"..............aaaaa...a.........",
".............a.....a.a..........",
"............a.......a...........",
"....#......a.........a..........",
".....#....a...........a.........",
"......##..a...........a.........",
".aaaaaaa##a...........a.........",
"......##..a...........a.........",
".....#....a...........a.........",
"....#......a.........a..........",
"............a.......a...........",
".............a.....a.a..........",
"..............aaaaa...a.........",
".......................a........",
"........................a..#....",
".........................a..#...",
"..........................a.#...",
"........................#..a.#..",
".........................##.a#..",
"...........................###..",
"................................",
"................................"};
