/* XPM */
static char * nozzle_xpm[] = {
"16 16 151 2",
"  	c #FFFFFF",
". 	c #F9F9F9",
"+ 	c #FCFCFC",
"@ 	c #FCFDFD",
"# 	c #CDCECD",
"$ 	c #535352",
"% 	c #707272",
"& 	c #717374",
"* 	c #4F5053",
"= 	c #CFD1D5",
"- 	c #FDFDFD",
"; 	c #FEFEFE",
"> 	c #F8F8F8",
", 	c #EBF1EF",
"' 	c #AEA9A6",
") 	c #0E0000",
"! 	c #190705",
"~ 	c #0B0000",
"{ 	c #170D0C",
"] 	c #A9A3A3",
"^ 	c #EFEFEF",
"/ 	c #FAFAFA",
"( 	c #FBFBFB",
"_ 	c #CED1D0",
": 	c #B29E9D",
"< 	c #210000",
"[ 	c #260000",
"} 	c #270100",
"| 	c #1B0000",
"1 	c #B49F9C",
"2 	c #D2D2D2",
"3 	c #7F7F7F",
"4 	c #200001",
"5 	c #3D090B",
"6 	c #3C0002",
"7 	c #370000",
"8 	c #340807",
"9 	c #260402",
"0 	c #7E7E7E",
"a 	c #6D7277",
"b 	c #361101",
"c 	c #450000",
"d 	c #400000",
"e 	c #4A0301",
"f 	c #4E0000",
"g 	c #420001",
"h 	c #736B79",
"i 	c #F8FFFF",
"j 	c #F8FFED",
"k 	c #FFFDFD",
"l 	c #FFFBFF",
"m 	c #81514F",
"n 	c #6A0010",
"o 	c #6D001A",
"p 	c #630100",
"q 	c #5E0005",
"r 	c #5E000E",
"s 	c #5B0504",
"t 	c #7A6052",
"u 	c #FFEFFA",
"v 	c #FFF4FF",
"w 	c #EAFFF7",
"x 	c #FFFFEF",
"y 	c #500209",
"z 	c #A20000",
"A 	c #8D0500",
"B 	c #950000",
"C 	c #920001",
"D 	c #900000",
"E 	c #9A000C",
"F 	c #4D0000",
"G 	c #FFFEFF",
"H 	c #FFF5F4",
"I 	c #FBFFFE",
"J 	c #F2FFFF",
"K 	c #6D0E07",
"L 	c #D01A05",
"M 	c #CE3315",
"N 	c #CD2400",
"O 	c #C42B0C",
"P 	c #D2280F",
"Q 	c #C82A0F",
"R 	c #6F1114",
"S 	c #FFF3FF",
"T 	c #FFF7F8",
"U 	c #F2FFFA",
"V 	c #F6F7FB",
"W 	c #C2C2C2",
"X 	c #AF671F",
"Y 	c #EC7B32",
"Z 	c #EB7622",
"` 	c #F5761F",
" .	c #F27932",
"..	c #FA7026",
"+.	c #E87D29",
"@.	c #B86320",
"#.	c #B8C3A9",
"$.	c #FAFCF9",
"%.	c #FDF8FF",
"&.	c #F3FCFF",
"*.	c #F4F4F4",
"=.	c #030303",
"-.	c #F4E388",
";.	c #FFF90F",
">.	c #F1EE27",
",.	c #F8F12F",
"'.	c #FDF12D",
").	c #FBEA1E",
"!.	c #F5F525",
"~.	c #EDE67E",
"{.	c #090017",
"].	c #F9FFED",
"^.	c #FAFBFD",
"/.	c #FFFBED",
"(.	c #000000",
"_.	c #F4F6D2",
":.	c #FFF1DB",
"<.	c #E9FFCE",
"[.	c #E8F8C9",
"}.	c #FFF3E3",
"|.	c #FCF7D1",
"1.	c #FCF4C5",
"2.	c #F7F6D1",
"3.	c #000200",
"4.	c #F5F9FF",
"5.	c #FFF9FF",
"6.	c #FFFFFB",
"7.	c #A1A29A",
"8.	c #010300",
"9.	c #FCF9D6",
"0.	c #F4F1CE",
"a.	c #FAF7D4",
"b.	c #F7F4D1",
"c.	c #FDFAD7",
"d.	c #F8F8D3",
"e.	c #050200",
"f.	c #A5A19E",
"g.	c #EEEFEA",
"h.	c #FFFFFA",
"i.	c #F2F3EB",
"j.	c #F3F3D1",
"k.	c #F9F9D7",
"l.	c #FFFFDE",
"m.	c #EEEECC",
"n.	c #F6F6D4",
"o.	c #F8F8D6",
"p.	c #F7F5DB",
"q.	c #F3F1E4",
"r.	c #FFFEFB",
"s.	c #FDFBFC",
"t.	c #F9F9FB",
"                                ",
"                                ",
"  .   + @ # $ % & * = +   - ; - ",
"    >   , ' ) ! ~ { ] ^   / / ; ",
"  ;   ( _ : < [ } | 1 2 .     . ",
"  ;     3 4 5 6 7 8 9 0   /     ",
"  >   ( a b c d e f g h i j k l ",
"    ; ; m n o p q r s t u v w x ",
"    /   y z A B C D E F G H I J ",
"    ; / K L M N O P Q R S T U V ",
"  / - W X Y Z `  ...+.@.#.$.%.&.",
"    *.=.-.;.>.,.'.).!.~.{.].^./.",
"  +   (._.:.<.[.}.|.1.2.3.4.5.l ",
"  6.7.8.9.0.a.9.b.c.b.d.e.f.G G ",
"  g.h.i.j.k.l.m.k.n.o.p.q.r.s.t.",
"                                "};
