/* XPM */
static char * operator_and_xpm[] = {
"16 16 66 1",
" 	c #FFFFFF",
".	c #FFF9F9",
"+	c #FCFCFF",
"@	c #6B6BFF",
"#	c #3C3CFF",
"$	c #6464FF",
"%	c #F1F1FF",
"&	c #6F6FFF",
"*	c #B0B0FF",
"=	c #C4C4FF",
"-	c #3A3AFF",
";	c #F2F2FF",
">	c #0909FF",
",	c #9F9FFF",
"'	c #3B3BFF",
")	c #F0F0FF",
"!	c #0606FF",
"~	c #B4B4FF",
"{	c #0F0FFF",
"]	c #C6C6FF",
"^	c #3737FF",
"/	c #5B5BFF",
"(	c #AFAFFF",
"_	c #3333FF",
":	c #1919FF",
"<	c #C7C7FF",
"[	c #2828FF",
"}	c #1F1FFF",
"|	c #3636FF",
"1	c #FDFDFF",
"2	c #4949FF",
"3	c #2E2EFF",
"4	c #2C2CFF",
"5	c #0202FF",
"6	c #C9C9FF",
"7	c #9696FF",
"8	c #2727FF",
"9	c #EEEEFF",
"0	c #ACACFF",
"a	c #E5E5FF",
"b	c #1818FF",
"c	c #FEFEFF",
"d	c #BEBEFF",
"e	c #DDDDFF",
"f	c #DADAFF",
"g	c #2B2BFF",
"h	c #E9E9FF",
"i	c #0A0AFF",
"j	c #9E9EFF",
"k	c #C2C2FF",
"l	c #5858FF",
"m	c #F4F4FF",
"n	c #EFEFFF",
"o	c #2D2DFF",
"p	c #7676FF",
"q	c #A3A3FF",
"r	c #5656FF",
"s	c #6868FF",
"t	c #0101FF",
"u	c #BBBBFF",
"v	c #1C1CFF",
"w	c #4646FF",
"x	c #8181FF",
"y	c #9898FF",
"z	c #2323FF",
"A	c #A5A5FF",
"          .     ",
"     +@#$%      ",
"     &* =-      ",
"    ;>+ ,'      ",
"    )!+~{]      ",
"     ^/>(       ",
"    ;_:< [}}|   ",
"   1234+ <56    ",
"   789$0 ab     ",
"  c}d e_1fg     ",
"  hic  &jkl     ",
"  m!%  nopq     ",
"   2r9 1ste u   ",
"   a/v'wxyz2A   ",
"                ",
"                "};
