/* XPM */
static char * operator_ifthen_xpm[] = {
"16 16 43 1",
" 	c #FFFFFF",
".	c #FFF9F9",
"+	c #B2B2FF",
"@	c #4141FF",
"#	c #4040FF",
"$	c #3131FF",
"%	c #9797FF",
"&	c #A7A7FF",
"*	c #3E3EFF",
"=	c #F4F4FF",
"-	c #F0F0FF",
";	c #4C4CFF",
">	c #9999FF",
",	c #1313FF",
"'	c #6161FF",
")	c #EFEFFF",
"!	c #2727FF",
"~	c #F3F3FF",
"{	c #EDEDFF",
"]	c #3B3BFF",
"^	c #5151FF",
"/	c #E8E8FF",
"(	c #2A2AFF",
"_	c #2323FF",
":	c #0C0CFF",
"<	c #F6F6FF",
"[	c #4545FF",
"}	c #4444FF",
"|	c #FAFAFF",
"1	c #4747FF",
"2	c #9C9CFF",
"3	c #9595FF",
"4	c #7979FF",
"5	c #3A3AFF",
"6	c #E2E2FF",
"7	c #EEEEFF",
"8	c #4242FF",
"9	c #2121FF",
"0	c #0D0DFF",
"a	c #2626FF",
"b	c #8282FF",
"c	c #3939FF",
"d	c #6464FF",
"          .     ",
"                ",
"  +@#$%         ",
" &*= -;>        ",
" ,'   )!    ~{  ",
" ]^   /(    _:{ ",
"     <[&    }!= ",
"    |12         ",
"    34          ",
"    56      ~7  ",
"    8       90{ ",
"            8a= ",
"   bc           ",
"   d!           ",
"                ",
"                "};
