/* XPM */
static char * operator_ne_xpm[] = {
"16 16 31 1",
" 	c #FFFFFF",
".	c #FFF9F9",
"+	c #DBDBFF",
"@	c #F1F1FF",
"#	c #FDFDFF",
"$	c #5454FF",
"%	c #FBFBFF",
"&	c #A5A5FF",
"*	c #A8A8FF",
"=	c #4F4FFF",
"-	c #4B4BFF",
";	c #1D1DFF",
">	c #4D4DFF",
",	c #9B9BFF",
"'	c #B3B3FF",
")	c #F7F7FF",
"!	c #5656FF",
"~	c #FEFEFF",
"{	c #8F8FFF",
"]	c #BEBEFF",
"^	c #F3F3FF",
"/	c #5A5AFF",
"(	c #3F3FFF",
"_	c #2121FF",
":	c #3030FF",
"<	c #F5F5FF",
"[	c #5858FF",
"}	c #8C8CFF",
"|	c #C1C1FF",
"1	c #ECECFF",
"2	c #E3E3FF",
"          .     ",
"          +@    ",
"         #$%    ",
"         &*     ",
"  ======-;>===  ",
"        ,'      ",
"       )!~      ",
"       {]       ",
"      ^/        ",
"  ((((_:((((((  ",
"     <[         ",
"     }|         ",
"    ^/          ",
"    12          ",
"                ",
"                "};
