/* XPM */
static char *operator_asin_xpm[]={
"16 16 3 1",
". c None",
"a c #0000ff",
"# c #ff0000",
"...............#",
"...............#",
"...........###.#",
"..aaa....#.....#",
".a...a..#......#",
".a..............",
".a.....a..a.aa..",
"..aa....a..a..a.",
"...aa...a..a..a.",
".....a..a..a..a.",
".....a..a..a..a.",
".....a..a..a..a.",
".a...a..a..a..a.",
"..aaa....a.a...a",
"................",
"................"};
