/* XPM */
static char * operator_not_xpm[] = {
"16 16 20 1",
" 	c #FFFFFF",
".	c #FFF9F9",
"+	c #1515FF",
"@	c #4C4CFF",
"#	c #0000FF",
"$	c #3838FF",
"%	c #0202FF",
"&	c #6161FF",
"*	c #0505FF",
"=	c #A6A6FF",
"-	c #0707FF",
";	c #D5D5FF",
">	c #0909FF",
",	c #F2F2FF",
"'	c #0E0EFF",
")	c #FEFEFF",
"!	c #3535FF",
"~	c #8B8BFF",
"{	c #2121FF",
"]	c #6F6FFF",
"          .     ",
"                ",
"       +@       ",
"       #$       ",
"       %&       ",
"       *=       ",
"       -;       ",
"       >,       ",
"       ')       ",
"       +        ",
"                ",
"                ",
"       !~       ",
"       {]       ",
"                ",
"                "};
