/* XPM */
static char *operator_pow_xpm[]={
"16 16 3 1",
". c None",
"a c #0000ff",
"# c #ff0000",
"..........#.....",
"..........#.....",
"......a...#.....",
"......a...###...",
"......a...#..#..",
".....a.a..#..#..",
".....a.a..###...",
".....a.a........",
"....a...a.......",
"....a...a.......",
"...a.....a......",
"...a.....a......",
"...aaaaaaa......",
"..a.......a.....",
"..a.......a.....",
".a.........a...."};
