/* XPM */
static char *operator_acos_xpm[]={
"16 16 3 1",
". c None",
"a c #0000ff",
"# c #ff0000",
"...............#",
"..........####.#",
"...............#",
"..aaa..........#",
".a...a.......aa.",
".a......aa..a..a",
"a......a..a.a...",
"a......a..a.a...",
"a......a..a..a..",
"a......a..a...a.",
"a......a..a....a",
".a.....a..a....a",
".a...a..aa..a..a",
"..aaa........aa.",
"................",
"................"};
