/* XPM */
static char * operator_le_xpm[] = {
"16 16 53 1",
" 	c #FFFFFF",
".	c #FFF9F9",
"+	c #EEEEFF",
"@	c #8080FF",
"#	c #7F7FFF",
"$	c #5E5EFF",
"%	c #CECEFF",
"&	c #EDEDFF",
"*	c #7E7EFF",
"=	c #5D5DFF",
"-	c #7D7DFF",
";	c #7C7CFF",
">	c #5757FF",
",	c #8484FF",
"'	c #F3F3FF",
")	c #C6C6FF",
"!	c #8F8FFF",
"~	c #F7F7FF",
"{	c #B6B6FF",
"]	c #FEFEFF",
"^	c #BCBCFF",
"/	c #5454FF",
"(	c #9A9AFF",
"_	c #FAFAFF",
":	c #9494FF",
"<	c #C0C0FF",
"[	c #B2B2FF",
"}	c #5353FF",
"|	c #A5A5FF",
"1	c #FCFCFF",
"2	c #F5F5FF",
"3	c #8989FF",
"4	c #5959FF",
"5	c #C9C9FF",
"6	c #FDFDFF",
"7	c #A8A8FF",
"8	c #AFAFFF",
"9	c #F1F1FF",
"0	c #D2D2FF",
"a	c #FBFBFF",
"b	c #9D9DFF",
"c	c #5555FF",
"d	c #ECECFF",
"e	c #7777FF",
"f	c #6464FF",
"g	c #DADAFF",
"h	c #F8F8FF",
"i	c #E6E6FF",
"j	c #6F6FFF",
"k	c #6B6BFF",
"l	c #E1E1FF",
"m	c #DFDFFF",
"n	c #6868FF",
"          . +@  ",
"          +#$%  ",
"        &*$%    ",
"      &*=%      ",
"    &-=%        ",
"   ;=%          ",
"   >,'          ",
"    )>!~        ",
"   {] ^/(_      ",
"   :/< ][}|1    ",
"    2345 67}8]  ",
"      9@$0 abc  ",
"        defg h  ",
"          ijkl  ",
"            mn  ",
"                "};
