/* XPM */
static char * pause_xpm[] = {
"16 16 24 1",
" 	c None",
".	c #000000",
"+	c #262B33",
"@	c #99AACB",
"#	c #95A6C7",
"$	c #242931",
"%	c #91A1C2",
"&	c #8E9EBE",
"*	c #23272F",
"=	c #8B9BBA",
"-	c #8898B7",
";	c #21252D",
">	c #8695B4",
",	c #8493B2",
"'	c #20242C",
")	c #8291AF",
"!	c #8190AE",
"~	c #20242B",
"{	c #8392B1",
"]	c #8999B8",
"^	c #90A1C1",
"/	c #252932",
"(	c #9CADCF",
"_	c #9EB0D3",
"                ",
"                ",
"                ",
"                ",
"   ....   ....  ",
"   +@#.   +@#.  ",
"   $%&.   $%&.  ",
"   *=-.   *=-.  ",
"   ;>,.   ;>,.  ",
"   ')!.   ')!.  ",
"   ~!{.   ~!{.  ",
"   ;]^.   ;]^.  ",
"   /(_.   /(_.  ",
"   ....   ....  ",
"                ",
"                "};
