/* XPM */
static char * pid_xpm[] = {
"32 32 7 1",
" 	c None",
".	c #000000",
"+	c #FFFFFF",
"@	c #A0A0A0",
"#	c #DB000F",
"$	c #00A90C",
"%	c #0000CF",
"................................",
"................................",
"..++++++++++++++++++++++++++++..",
"..++++++++++@...@+++++++++++++..",
"..++++++++++.###.+++++++++++++..",
"..++++++++++.###.+++++++++++++..",
"..++++++.....###.....+++++++++..",
"..++++++.+++.###.+++.+++++++++..",
"..++++++.+++.###.+++.+++++++++..",
"..++++++.+++@...@+++.+++++++++..",
"..++++++.+++++++++++.+++++++++..",
"..++++++.+++++++++++.+++++++++..",
"..++++++.+++@...@+++.+++++++++..",
"...+++++.+++.$$$.+++.++++++.++..",
"..+.++++.+++.$$$.+++.+++++++.+..",
"..++.........$$$................",
"..+.++++.+++.$$$.+++.+++++++.+..",
"...+++++.+++.$$$.+++.++++++.++..",
"..++++++.+++@...@+++.+++++++++..",
"..++++++.+++++++++++.+++++++++..",
"..++++++.+++++++++++.+++++++++..",
"..++++++.+++@...@+++.+++++++++..",
"..++++++.+++.%%%.+++.+++++++++..",
"..++++++.+++.%%%.+++.+++++++++..",
"..++++++.....%%%.....+++++++++..",
"..++++++++++.%%%.+++++++++++++..",
"..++++++++++.%%%.+++++++++++++..",
"..++++++++++@...@+++++++++++++..",
"..++++++++++++++++++++++++++++..",
"..++++++++++++++++++++++++++++..",
"................................",
"................................"};
