/* XPM */
static char * piston_engine_xpm[] = {
"16 16 183 2",
"  	c #FFFFFF",
". 	c #FFFEFB",
"+ 	c #FBFFFF",
"@ 	c #5F6F7C",
"# 	c #576B74",
"$ 	c #5F7976",
"% 	c #6E6791",
"& 	c #576C7D",
"* 	c #58758A",
"= 	c #547771",
"- 	c #6A6B7F",
"; 	c #786C82",
"> 	c #526182",
", 	c #5A7F6E",
"' 	c #F8FCFF",
") 	c #FFFFF4",
"! 	c #FBFDFC",
"~ 	c #6B6C7C",
"{ 	c #EFE243",
"] 	c #E2E94E",
"^ 	c #EFE03F",
"/ 	c #E5ED51",
"( 	c #EFE127",
"_ 	c #F1ED60",
": 	c #D7E438",
"< 	c #69737C",
"[ 	c #5C7381",
"} 	c #F8FCFB",
"| 	c #FFFFF3",
"1 	c #FBFDFE",
"2 	c #656987",
"3 	c #E8FB49",
"4 	c #F5F125",
"5 	c #FFF94E",
"6 	c #F9F344",
"7 	c #F5F84B",
"8 	c #F5F54B",
"9 	c #F2FC4C",
"0 	c #636A7B",
"a 	c #617086",
"b 	c #FCFBFC",
"c 	c #FAFCF3",
"d 	c #FAFEFF",
"e 	c #597384",
"f 	c #C0D199",
"g 	c #AAC28A",
"h 	c #BFC3B4",
"i 	c #B5C69F",
"j 	c #B8BEA4",
"k 	c #B8CBA7",
"l 	c #B8C1BB",
"m 	c #546883",
"n 	c #596E7C",
"o 	c #FDFDFD",
"p 	c #FBFEFC",
"q 	c #FBFEFF",
"r 	c #5A698B",
"s 	c #A2B7C4",
"t 	c #9DB6BF",
"u 	c #9AB7CA",
"v 	c #9CBDC1",
"w 	c #9EBBBA",
"x 	c #9DB3C8",
"y 	c #9EB9B4",
"z 	c #587C7C",
"A 	c #576F89",
"B 	c #F9FEF0",
"C 	c #FCFEFF",
"D 	c #646B86",
"E 	c #9DB1C9",
"F 	c #A3B7CE",
"G 	c #99BACC",
"H 	c #9AB8C2",
"I 	c #9FC0B8",
"J 	c #9CAFD1",
"K 	c #9BB9B8",
"L 	c #557876",
"M 	c #596E86",
"N 	c #FBFEF3",
"O 	c #F9FFFF",
"P 	c #F9FEFD",
"Q 	c #60727C",
"R 	c #B9CEE0",
"S 	c #B9D6E0",
"T 	c #B7D3DE",
"U 	c #B8CEDE",
"V 	c #BAD1D8",
"W 	c #B8D0E7",
"X 	c #B9CEE5",
"Y 	c #566E80",
"Z 	c #607077",
"` 	c #FFFBFD",
" .	c #F8FFFF",
"..	c #F6FEFA",
"+.	c #FEFDFB",
"@.	c #FCFEFE",
"#.	c #99A3AB",
"$.	c #92A2AA",
"%.	c #B5CDD7",
"&.	c #AED1C8",
"*.	c #B2CCC9",
"=.	c #B9CBD6",
"-.	c #B2C9D7",
";.	c #B6D1D3",
">.	c #BACCD9",
",.	c #95A4B6",
"'.	c #9DA5A5",
").	c #FEF9FD",
"!.	c #FAFFFF",
"~.	c #F8FFFA",
"{.	c #FEFEFE",
"].	c #FFFBFF",
"^.	c #85999C",
"/.	c #779597",
"(.	c #81949B",
"_.	c #85949E",
":.	c #7C98A0",
"<.	c #8499A4",
"[.	c #8597A1",
"}.	c #F5FFFF",
"|.	c #FCFDFB",
"1.	c #FDFDFB",
"2.	c #FDFEFE",
"3.	c #FEFCFF",
"4.	c #9DB4BA",
"5.	c #9DBFC5",
"6.	c #9BB2C0",
"7.	c #A2B9C9",
"8.	c #95B3BF",
"9.	c #A2B8C5",
"0.	c #A2B4BB",
"a.	c #F9FAF7",
"b.	c #FEFEFC",
"c.	c #FBFCFE",
"d.	c #FCFCFE",
"e.	c #A2BAC1",
"f.	c #99BDC6",
"g.	c #9BB5C8",
"h.	c #99B6C8",
"i.	c #96B8C3",
"j.	c #9FB4C2",
"k.	c #A7B6BD",
"l.	c #F8FEFE",
"m.	c #FFFEFE",
"n.	c #C7D6D9",
"o.	c #A2BBC3",
"p.	c #A2B5C7",
"q.	c #9BB6C6",
"r.	c #9DBAC3",
"s.	c #A4B2BD",
"t.	c #D0DBDF",
"u.	c #F9FDFE",
"v.	c #FCFCF9",
"w.	c #FEFEFD",
"x.	c #FCFFFF",
"y.	c #FBF7F4",
"z.	c #F6FBF9",
"A.	c #F2F8F9",
"B.	c #F4F5F9",
"C.	c #CCDDE0",
"D.	c #A0B9BD",
"E.	c #F1F7F8",
"F.	c #F7FBFC",
"G.	c #FEFEFA",
"H.	c #FDFEFD",
"I.	c #FBFFFD",
"J.	c #FEF7FB",
"K.	c #CBD8D9",
"L.	c #9CB4B9",
"M.	c #F7FFFF",
"N.	c #F6F7F9",
"O.	c #F9FBFA",
"P.	c #FEFFFF",
"Q.	c #F7FDFE",
"R.	c #F7FFFC",
"S.	c #FFFEFC",
"T.	c #FFF9FB",
"U.	c #E7F1F1",
"V.	c #9DB9BF",
"W.	c #BAC6D2",
"X.	c #FBFCFD",
"Y.	c #FAF9F7",
"Z.	c #FFFDFA",
"                                ",
". + @ # $ % & * = - ; > , ' ) ! ",
". + @ ~ { ] ^ / ( _ : < [ } | 1 ",
". + @ 2 3 4 5 6 7 8 9 0 a b c d ",
". + @ e f g h i j k l m n o p q ",
". + @ r s t u v w x y z A B + C ",
". + @ D E F G H I J K L M N O P ",
". + @ Q R S T U V W X Y Z `  ...",
"+.@.#.$.%.&.*.=.-.;.>.,.'.).!.~.",
"o {.  ].^./.(._.:.<.[.}.|.1.2.  ",
"o {.  3.4.5.6.7.8.9.0. .a.b.c.  ",
"o {.  d.e.f.g.h.i.j.k.l.1.1.c.{.",
"o {.  m.n.o.p.q.r.s.t.u.v.w.x.o ",
"o {.  y.z.A.B.C.D.E.F.{.G.H.x.2.",
"o {.  1.I.b.J.K.L.M.N.+.. O.+ P.",
"o {.  Q.R.S.T.U.V.W.X.Y.Z.! + ! "};
