/* XPM */
static char * property_xpm[] = {
"16 16 107 2",
"  	c #F8F5F2",
". 	c #F7F4F1",
"+ 	c #CAC7C5",
"@ 	c #7C7B79",
"# 	c #E9E6E3",
"$ 	c #D9D6D4",
"% 	c #1F1E1E",
"& 	c #686868",
"* 	c #2F2E2D",
"= 	c #6D6B6A",
"- 	c #3E3D3D",
"; 	c #2D2D2D",
"> 	c #E8E8E8",
", 	c #B3B3B3",
"' 	c #1C1B1B",
") 	c #656565",
"! 	c #BEBEBE",
"~ 	c #3E3E3E",
"{ 	c #8C8A88",
"] 	c #5D5C5B",
"^ 	c #898989",
"/ 	c #C8C8C8",
"( 	c #3F3F3F",
"_ 	c #232323",
": 	c #B7B7B7",
"< 	c #666666",
"[ 	c #1F1F1E",
"} 	c #1E1D1D",
"| 	c #1D1C1C",
"1 	c #636363",
"2 	c #E3E3E3",
"3 	c #BAB8B6",
"4 	c #464646",
"5 	c #B9B9B9",
"6 	c #9B9B9B",
"7 	c #353535",
"8 	c #BABABA",
"9 	c #2A2A2A",
"0 	c #4E4D4C",
"a 	c #999999",
"b 	c #C7C7C7",
"c 	c #2B2B2B",
"d 	c #BFBFBF",
"e 	c #BBBBBB",
"f 	c #D2D2D2",
"g 	c #DFDFDF",
"h 	c #A2A2A2",
"i 	c #9D9D9D",
"j 	c #0E0E0E",
"k 	c #343434",
"l 	c #A8A8A8",
"m 	c #7B7B7B",
"n 	c #646464",
"o 	c #0C0C0C",
"p 	c #8C8C8C",
"q 	c #9E8D20",
"r 	c #886900",
"s 	c #0D0D0D",
"t 	c #474747",
"u 	c #948006",
"v 	c #F7C300",
"w 	c #D89600",
"x 	c #9B7500",
"y 	c #1F1A0F",
"z 	c #454545",
"A 	c #6D6D6D",
"B 	c #C0C0C0",
"C 	c #555555",
"D 	c #4B3B00",
"E 	c #CF9E00",
"F 	c #CA8D00",
"G 	c #A96C00",
"H 	c #885F00",
"I 	c #5C5C5C",
"J 	c #B4B4B4",
"K 	c #CECECE",
"L 	c #1C1C1C",
"M 	c #9B7F00",
"N 	c #B37A00",
"O 	c #B17600",
"P 	c #795B00",
"Q 	c #8F8F8F",
"R 	c #4F4F4F",
"S 	c #6B6B6B",
"T 	c #D0D0D0",
"U 	c #A5A5A5",
"V 	c #1F1C0F",
"W 	c #BC9700",
"X 	c #BA8400",
"Y 	c #BB8500",
"Z 	c #BB8400",
"` 	c #483900",
" .	c #9B9997",
"..	c #191919",
"+.	c #1A1A1A",
"@.	c #E0E0E0",
"#.	c #818181",
"$.	c #2E2600",
"%.	c #C89F00",
"&.	c #C39200",
"*.	c #C58F00",
"=.	c #816100",
"-.	c #ACACAC",
";.	c #4A3D00",
">.	c #E3B800",
",.	c #6F4E00",
"'.	c #000000",
"                                ",
". . + @ #                     . ",
". $ % & * +     . # = - - $     ",
". $ ; > , ' .     - ) ! ~ { $ . ",
"    ] ^ / ( { . $ _ : < [ } | . ",
". . $ [ 1 2 ; 3 { 4 5 6 7 8 9 . ",
"        0 a b | c d e f g 8 [ . ",
".     . # * h i j k l m n } + . ",
"        . { o p q r s 0 3 #     ",
".     3 = c t u v w x y #     . ",
". # - z A B C D E F G H * #     ",
". { I J 5 ! K L M N O N P ] . . ",
". - Q R S T U - V W X Y Z `  .. ",
". ] ..* +.@.#.@ 3 $.%.&.*.=.@ . ",
"    + | 8 -.} $ .  .;.>.,.* # . ",
".     0 - 0 +     . = '.=     . "};
