/* XPM */
static char *reverse_xpm[]={
"16 15 4 1",
". c None",
"# c #0000ff",
"a c #303030",
"b c #ff0000",
".......##.......",
".......##.......",
".aaaaaa##aaaaaa.",
".a.....##.....a.",
".a..b..##.....a.",
"bbbbbb.##.....a.",
".a..b..##.....a.",
".a.....##.....a.",
".a.....##.....a.",
".a.....##..b..a.",
".a.....##.bbbbbb",
".a.....##..b..a.",
".a.....##.....a.",
".aaaaaa##aaaaaa.",
".......##......."};
