/* XPM */
static char * running_xpm[] = {
"16 16 54 1",
" 	c None",
".	c #000000",
"+	c #282C34",
"@	c #96A2BC",
"#	c #424751",
"$	c #20242D",
"%	c #8E9EBF",
"&	c #94A4C4",
"*	c #8492AD",
"=	c #383E4A",
"-	c #1A1F28",
";	c #6F81A6",
">	c #7486AA",
",	c #798BAE",
"'	c #7E8FB2",
")	c #6E7D9C",
"!	c #2C3340",
"~	c #191E27",
"{	c #667AA0",
"]	c #687BA1",
"^	c #6B7EA4",
"/	c #6D80A6",
"(	c #596A8B",
"_	c #232B39",
":	c #1A1F29",
"<	c #6C80A6",
"[	c #6D80A7",
"}	c #6E81A8",
"|	c #6F82A8",
"1	c #6A7EA4",
"2	c #4B5A77",
"3	c #1D212B",
"4	c #7588AE",
"5	c #7689AF",
"6	c #778AB0",
"7	c #788BB1",
"8	c #798CB2",
"9	c #687899",
"0	c #2A3140",
"a	c #1E232C",
"b	c #7E91B7",
"c	c #7F92B8",
"d	c #8093B8",
"e	c #8194B9",
"f	c #7081A2",
"g	c #303745",
"h	c #20252E",
"i	c #879ABF",
"j	c #889BC0",
"k	c #7788A8",
"l	c #333A48",
"m	c #222730",
"n	c #7E8EAE",
"o	c #363D4B",
"                ",
"                ",
"    ..          ",
"    +@#.        ",
"    $%&*=.      ",
"    -;>,')!.    ",
"    ~{]^//^(_.  ",
"    :<[}|||/12. ",
"    345677890.  ",
"    abcdefg.    ",
"    hijkl.      ",
"    mno.        ",
"    ..          ",
"                ",
"                ",
"                "};
