/* XPM */
static char * script_xpm[] = {
"16 16 64 1",
" 	c #FFFFFF",
".	c #F9F9F9",
"+	c #7D7D7D",
"@	c #DEDEDE",
"#	c #D1D1D1",
"$	c #EDEDED",
"%	c #EFEFEF",
"&	c #DADADA",
"*	c #A8A8A8",
"=	c #AAAAAA",
"-	c #C3C3C3",
";	c #F8F8F8",
">	c #F1F1F1",
",	c #F2F2F2",
"'	c #F3F3F3",
")	c #F4F4F4",
"!	c #F5F5F5",
"~	c #B2B2B2",
"{	c #8B8B8B",
"]	c #CFCFCF",
"^	c #FEFEFE",
"/	c #989898",
"(	c #EBEBEB",
"_	c #F6F6F6",
":	c #F7F7F7",
"<	c #DFDFDF",
"[	c #ECECEC",
"}	c #E6E6E6",
"|	c #BABABA",
"1	c #D7D7D7",
"2	c #D9D9D9",
"3	c #E8E8E8",
"4	c #E0E0E0",
"5	c #FCFCFC",
"6	c #FAFAFA",
"7	c #A4A4A4",
"8	c #8E8E8E",
"9	c #E5E5E5",
"0	c #FBFBFB",
"a	c #929292",
"b	c #D2D2D2",
"c	c #EAEAEA",
"d	c #C2C2C2",
"e	c #BCBCBC",
"f	c #E1E1E1",
"g	c #EEEEEE",
"h	c #E4E4E4",
"i	c #C6C6C6",
"j	c #BBBBBB",
"k	c #E7E7E7",
"l	c #A5A5A5",
"m	c #6F6F6F",
"n	c #FDFDFD",
"o	c #CECECE",
"p	c #C1C1C1",
"q	c #D5D5D5",
"r	c #979797",
"s	c #E2E2E2",
"t	c #A7A7A7",
"u	c #B1B1B1",
"v	c #CBCBCB",
"w	c #ADADAD",
"x	c #838383",
"y	c #6C6C6C",
"                ",
"    .+@         ",
"    #$%&*=-;    ",
"    =>>,'))!~{].",
"   ^/>@(;!__:;!<",
"   ^[}|%123}).45",
"   |!$_((#(!667 ",
"  ^8___(9,;0,5a ",
"  ^b;;c-!de)f^^ ",
"  %(!$g>:;h$:d  ",
"  i6(jh>k$[> l  ",
"  m55n$o}c:5^p  ",
"  q5n^^   ^^n$  ",
" <^^        r^  ",
"  stuv6   bwo   ",
"      ^ux/y(    "};
