/* XPM */
static char * sensor_xpm[] = {
"32 32 11 1",
" 	c #000000",
".	c #FFFFFF",
"+	c #A7F3A9",
"@	c #04AE08",
"#	c #FFD6D9",
"$	c #FF99A0",
"%	c #FB0012",
"&	c #EDEA00",
"*	c #C4C4C4",
"=	c #695FED",
"-	c #1100ED",
"                                ",
"                                ",
"  ............................  ",
"  ............................  ",
"  ..+.........................  ",
"  ...@..+.....................  ",
"  ....@++.....................  ",
"  ....+@@.....................  ",
"  ...++@@+....................  ",
"  ......+@..#$%%%#............  ",
"  ........+#%#&&&&&...........  ",
"  ........#%&&&&&&&&&.........  ",
"  .......#%&&&*   *&&.........  ",
"  .......$#&&* =-= *&&..... ..  ",
"  .......%&&& =---= &&...... .  ",
"  .......%&&& -----             ",
"  .......%&&& =---= &&...... .  ",
"  .......$#&&* =-= *&&..... ..  ",
"  .......#%&&&*   *&&.........  ",
"  ........#%&&&&&&&&&.........  ",
"  .........#%#&&&&&...........  ",
"  ........+.#$%%%#............  ",
"  ......+@....................  ",
"  ...++@@+....................  ",
"  ....+@@.....................  ",
"  ....@++.....................  ",
"  ...@..+.....................  ",
"  ..+.........................  ",
"  ............................  ",
"  ............................  ",
"                                ",
"                                "};
