/* XPM */
static char * summer_xpm[] = {
"32 32 14 1",
" 	c #000000",
".	c #FFFFFF",
"+	c #F3F3F3",
"@	c #A6A6A6",
"#	c #4A4A4A",
"$	c #0E0E0E",
"%	c #030303",
"&	c #494949",
"*	c #ABABAB",
"=	c #EFEFEF",
"-	c #7C7C7C",
";	c #272727",
">	c #EDEDED",
",	c #232323",
"                                ",
"                                ",
"  ............................  ",
"  ............................  ",
"  ............................  ",
"  ............................  ",
"   ...........................  ",
"  . ..........................  ",
"  .. .......+@#$$#@+..........  ",
"  . .......@%&*= *&%@.........  ",
"   .......-;>...,..>;-........  ",
"  .......@;..... ....;@.......  ",
"  ......+%>..... ....>%+......  ",
"   .....@&...... .....&@... ..  ",
"  . ....#*...... .....*#.... .  ",
"  .. ...$              $.....   ",
"  . ....$=...... .....=$.... .  ",
"   .....#*...... .....*#... ..  ",
"  ......@&...... .....&@......  ",
"  ......+%>..... ....>%+......  ",
"  .......@;..... ....;@.......  ",
"   .......-;>... ..>;-........  ",
"  . .......@%&*= *&%@.........  ",
"  .. .......+@#$$#@+..........  ",
"  . ..........................  ",
"   ...........................  ",
"  ............................  ",
"  ............................  ",
"  ............................  ",
"  ............................  ",
"                                ",
"                                "};
