/* XPM */
static char * switch_xpm[] = {
"32 32 3 1",
" 	c #000000",
".	c #FFFFFF",
"+	c #ECECEC",
"                                ",
"                                ",
"  ............................  ",
"  ............................  ",
"  ............................  ",
"  ............................  ",
"  .........   ................  ",
"  ...       . ................  ",
"  .........    ...............  ",
"  ............. ..............  ",
"  ............. ..............  ",
"  +............. .............  ",
"  ............... ............  ",
"   .............. ......... ..  ",
"  . ..............  ........ .  ",
"  .. ............ .       ...   ",
"  . .............   ........ .  ",
"   ........................ ..  ",
"  ............................  ",
"  ............................  ",
"  ............................  ",
"  ............................  ",
"  ..........   ...............  ",
"  ...        . ...............  ",
"  ..........   ...............  ",
"  ............................  ",
"  ............................  ",
"  ............................  ",
"  ............................  ",
"  ............................  ",
"                                ",
"                                "};
