/* XPM */
static char *value_icon_xpm[]={
"16 16 2 1",
". c None",
"# c #0000ff",
".#............##",
".#............##",
".#............##",
"..#..........##.",
"..#..........##.",
"...#........##..",
"...#........##..",
"...#.......##...",
"....#......##...",
"....#.....##....",
".....#....##....",
".....#...##.....",
".....#...##.....",
"......#.##......",
"......#.##......",
".......##......."};
